<?xml version="1.0" encoding="UTF-8" standalone="no"?>
<svg
   xmlns:dc="http://purl.org/dc/elements/1.1/"
   xmlns:cc="http://creativecommons.org/ns#"
   xmlns:rdf="http://www.w3.org/1999/02/22-rdf-syntax-ns#"
   xmlns:svg="http://www.w3.org/2000/svg"
   xmlns="http://www.w3.org/2000/svg"
   xmlns:sodipodi="http://sodipodi.sourceforge.net/DTD/sodipodi-0.dtd"
   xmlns:inkscape="http://www.inkscape.org/namespaces/inkscape"
   width="184.73897mm"
   height="181.5817mm"
   viewBox="0 0 184.73897 181.58169"
   version="1.1"
   id="svg8"
   inkscape:version="1.0.2 (e86c870, 2021-01-15)"
   sodipodi:docname="liger_color.svg">
  <defs
     id="defs2" />
  <sodipodi:namedview
     id="base"
     pagecolor="#ffffff"
     bordercolor="#666666"
     borderopacity="1.0"
     inkscape:pageopacity="0.0"
     inkscape:pageshadow="2"
     inkscape:zoom="0.98994949"
     inkscape:cx="330.39252"
     inkscape:cy="422.38512"
     inkscape:document-units="mm"
     inkscape:current-layer="layer3"
     inkscape:document-rotation="0"
     showgrid="false"
     inkscape:window-width="1920"
     inkscape:window-height="1121"
     inkscape:window-x="-9"
     inkscape:window-y="-9"
     inkscape:window-maximized="1" />
  <metadata
     id="metadata5">
    <rdf:RDF>
      <cc:Work
         rdf:about="">
        <dc:format>image/svg+xml</dc:format>
        <dc:type
           rdf:resource="http://purl.org/dc/dcmitype/StillImage" />
        <dc:title></dc:title>
      </cc:Work>
    </rdf:RDF>
  </metadata>
  <g
     inkscape:groupmode="layer"
     id="layer1"
     inkscape:label="base"
     transform="translate(2.148076,-1.1212623e-4)"
     style="display:inline">
    <path
       id="path958"
       style="display:inline;fill:#000000;stroke:none;stroke-width:0.18862"
       inkscape:label="moustache"
       d="m -2.148076,103.56542 c 0,2.14778 0,4.29557 0,6.44336 4.0872378,0 8.1744744,0 12.261712,0 -0.1936027,-2.31896 -0.2433597,-4.64678 -0.1874997,-6.97266 -4.0247379,0 -8.0494745,0 -12.0742123,0 0,0.17643 0,0.35287 0,0.5293 z m 5.0644502,7.89844 c 0,2.16145 0,4.32291 0,6.48437 3.0540352,0 6.1080694,0 9.1621058,0 -0.619785,-2.3314 -1.274471,-4.65459 -1.783204,-7.01367 -2.4596335,0 -4.9192673,0 -7.3789018,0 0,0.17643 0,0.35286 0,0.5293 z m 3.5332009,7.37304 c 0,2.16797 0,4.33594 0,6.50391 3.0364572,0 6.0729149,0 9.1093729,0 -1.107361,-2.33208 -2.240993,-4.65268 -3.242187,-7.0332 -1.955729,0 -3.9114568,0 -5.8671859,0 0,0.17643 0,0.35286 0,0.52929 z" />
    <path
       style="display:inline;fill:#000000;stroke:#aa0000;stroke-width:0;stroke-linecap:butt;stroke-linejoin:miter;stroke-miterlimit:4;stroke-dasharray:none;stroke-opacity:1;paint-order:markers stroke fill"
       d="m 109.51474,9.045051 c -14.430517,0.495244 -27.218707,3.429781 -38.582037,8.197266 -0.58636,-1.703755 -2.13926,-2.83309 -3.76099,-3.458249 -8.8574,-3.918201 -18.34414,-9.937565 -27.39274,-9.072397 -7.420983,2.925604 -8.12075,13.153704 -7.976665,19.37509 0.297675,5.337329 1.839582,10.643811 4.702665,15.17704 -2.145571,2.159313 -4.431261,4.185377 -6.521966,6.394269 -2.210278,3.305224 -1.721618,6.069359 -1.882326,9.371356 -1.649677,0.473745 -3.351646,1.769454 -3.336087,3.641151 -0.06893,1.84776 0.242027,3.706556 0.722847,5.485517 0.49822,1.702966 1.296226,3.323083 2.392537,4.720988 -7.781354,8.328611 -13.79569,18.063996 -20.375,27.318356 -0.676049,1.26079 -0.245735,2.97708 0.929688,3.78516 -2.668103,11.358982 3.571062,26.489972 11.035156,33.263672 6.157766,23.61003 28.426661,28.65285 47.809541,17.7355 5.70085,14.49715 20.27306,33.24531 33.501007,30.29185 3.10029,-0.87696 4.98266,-3.67451 7.13867,-5.84571 14.89233,-16.62434 35.89853,-26.62654 47.33391,-43.74883 4.58788,-6.63799 8.27766,-14.08577 9.57165,-22.11068 0.24542,-2.79122 -0.73381,-5.69666 -2.71415,-7.69517 2.97489,-12.300882 10.73781,-10.710622 20.48044,-5.710942 -0.0666,-12.374997 -1.14319,-24.93672 -5.30614,-36.67114 -3.73001,-10.442488 -9.64683,-20.073946 -17.17181,-28.211359 -2.07427,-2.364582 -3.83678,-4.990208 -5.83209,-7.409078 -0.80505,-0.653029 -1.90626,-0.898047 -2.92043,-0.716238 C 149.03881,14.752911 143.8736,6.924124 136.34523,2.349539 127.02547,-2.9576542 115.32606,1.350641 109.51474,9.045051 Z"
       id="path955"
       sodipodi:nodetypes="ccccccccccccccccccccccccccc"
       inkscape:label="egde" />
  </g>
  <g
     inkscape:groupmode="layer"
     id="layer3"
     inkscape:label="color"
     style="display:inline"
     transform="translate(-54.971951,-12.175764)">
    <path
       style="display:inline;fill:#ff6600;stroke:none;stroke-width:8.765;stroke-linecap:butt;stroke-linejoin:miter;stroke-miterlimit:4;stroke-dasharray:none;stroke-opacity:1;paint-order:markers stroke fill"
       d="m 209.81445,42.53125 c 0.30174,3.712992 0.0894,7.438765 -0.082,11.152344 3.5428,2.979714 6.49319,6.621065 8.81025,10.567984 4.20989,7.1274 6.41703,15.256988 7.58895,23.372558 0.55712,3.756647 0.90075,7.495273 1.16526,11.28602 1.67737,-0.495626 3.41787,0.02075 4.91065,0.814355 1.03396,0.521489 2.0548,1.065189 3.08935,1.586039 -0.35238,-11.218903 -2.18147,-22.525688 -6.69783,-32.863958 -2.23585,-5.124706 -4.99788,-10.025751 -8.24228,-14.579404 -3.3289,-4.569393 -7.46756,-8.490654 -10.66146,-13.166016 0.0397,0.610026 0.0794,1.220052 0.11914,1.830078 z"
       id="path3471"
       inkscape:label="back" />
    <path
       id="path1014"
       style="display:inline;fill:#ffcc00;stroke:none;stroke-width:8.765;stroke-linecap:butt;stroke-linejoin:miter;stroke-miterlimit:4;stroke-dasharray:none;stroke-opacity:1;paint-order:markers stroke fill"
       d="m 182.86523,16.222656 c -5.36317,0.380253 -10.17473,3.673853 -13.194,8.01309 -3.35272,4.77978 -4.56869,10.759506 -4.5114,16.519239 0.0529,2.067994 0.20783,4.17477 0.70689,6.174045 0.83225,1.092263 1.45484,2.377149 2.62464,3.158906 1.87723,1.554475 3.71863,3.164113 5.61807,4.684385 0.40134,0.104542 1.5631,1.028923 1.03209,0.128259 -0.42256,-1.296575 -1.45472,-2.261262 -2.04103,-3.483652 -3.25271,-5.671775 -3.67805,-12.762324 -1.41651,-18.865564 0.6567,-1.919839 1.68436,-3.878858 3.19951,-5.334236 2.08931,-2.050269 4.65927,-3.858508 7.61048,-4.313631 1.60683,-0.155405 3.17617,0.442278 4.55523,1.10546 4.26818,2.253997 7.08721,6.49388 8.88154,10.856471 0.89926,2.22404 1.51337,4.460015 1.84802,6.766951 0.77499,4.762906 -0.20252,9.777471 -2.54185,13.930372 -2.18859,4.001927 -5.97645,7.360107 -10.57813,8.120272 -0.71491,0.124308 -1.43981,0.183829 -2.15878,0.281821 2.03644,2.20051 4.28819,4.235807 5.97266,6.734375 5.05533,-1.201021 9.85474,-3.949973 12.93749,-8.202149 2.71391,-3.642969 4.092,-8.148951 4.31604,-12.65817 0.53433,-7.996992 -1.2144,-16.288841 -5.64998,-23.032806 -2.92901,-4.390569 -6.93859,-8.309061 -11.97074,-10.143985 -1.71318,-0.402308 -3.48308,-0.572083 -5.24024,-0.439453 z m -85.298824,4.847656 c -2.159549,1.406694 -3.10031,4.003996 -3.717681,6.390598 -1.183362,5.082859 -0.961421,10.476447 0.475539,15.484116 0.584969,2.063286 1.514034,4.010428 2.644486,5.828412 0.823829,-1.120787 1.579081,-2.401945 2.935547,-2.945313 -1.750128,-3.600384 -2.692973,-7.700371 -2.486328,-11.707031 0.138733,-2.6932 0.749797,-5.526646 2.019531,-7.984375 2.72594,0.904336 4.66143,3.216181 6.33008,5.441406 1.48597,2.177167 2.93482,4.490107 3.52734,7.087891 0.0573,0.608213 -0.005,1.221613 0.002,1.832031 1.43023,-1.683861 3.23459,-2.965902 5.06003,-4.125046 2.7215,-1.683285 5.52344,-3.362466 8.62546,-4.232644 0.71159,-0.01301 1.44787,-0.715683 1.03521,-1.429419 -0.72159,-0.749024 -1.81363,-1.011007 -2.68708,-1.557396 -5.7905,-2.940587 -11.65565,-5.928109 -17.9964,-7.492007 -1.84475,-0.436045 -3.73661,-0.697142 -5.634881,-0.67716 l -0.08396,0.05432 z m 66.197264,4.523438 c -10.20348,0.358859 -20.32029,2.46085 -29.8687,6.050555 -12.29883,4.595075 -23.9516,11.124131 -33.930126,19.693586 -2.423056,2.059641 -4.65418,4.328773 -6.865547,6.60964 -1.208342,1.053557 -2.574839,2.019917 -3.271129,3.519124 -0.421919,0.737101 -0.180251,1.663561 -0.320283,2.481199 -0.06581,1.093245 -0.08679,2.190233 -0.02742,3.284568 2.157248,2.023613 3.504764,4.653603 4.513672,7.416016 0.437879,0.997163 1.65109,0.70724 2.469733,0.464883 1.211862,-0.339494 2.354349,-0.876529 3.516595,-1.351602 2.450335,-7.394222 6.355765,-14.388748 11.654845,-20.211075 6.47907,-7.193609 14.85738,-12.484941 23.75147,-16.078269 8.77679,-3.562512 18.09291,-5.60162 27.44525,-6.790734 0.56603,-1.70889 1.13458,-3.416945 1.70313,-5.125 -0.25717,0.01237 -0.51433,0.02474 -0.77149,0.03711 z m -2.62695,8.939453 c -11.1972,1.484486 -22.42231,4.097112 -32.46411,9.421777 -7.70293,4.056407 -14.49508,9.99729 -19.06627,17.446936 -2.32536,3.715017 -4.08733,7.755571 -5.46767,11.908631 3.91507,1.856583 7.77729,4.352019 12.2412,4.495547 3.18652,0.148721 6.29032,-0.87298 9.13575,-2.22211 -1.70102,-3.742347 -2.90281,-8.023116 -1.77318,-12.10545 0.65952,-2.503225 2.16941,-4.697815 3.92292,-6.485035 3.65698,-3.659482 8.22977,-6.12002 12.63542,-8.778655 6.91165,-4.08095 14.34281,-7.084723 21.65234,-10.369141 -0.0882,-1.129481 -0.17453,-2.259111 -0.26171,-3.388672 -0.1849,0.02539 -0.3698,0.05078 -0.55469,0.07617 z m -4.72266,9.166016 c -7.27872,3.756103 -14.74899,7.258302 -21.44542,12.021175 -2.9761,2.167622 -5.83681,4.642299 -7.76356,7.822575 0.20563,2.56261 0.41432,5.124979 0.62109,7.6875 1.75377,-1.58665 3.92098,-2.701653 6.25714,-3.107288 4.78076,-0.882553 9.65075,0.0053 14.37016,1.092462 0.94657,0.17847 1.87217,0.678473 2.84475,0.367388 7.52817,-1.024636 15.08409,-0.178601 22.59045,0.596657 0.0568,-4.365892 -2.10229,-8.38667 -4.67924,-11.772767 -2.88937,-3.754337 -6.42724,-6.994184 -10.33248,-9.666687 -0.6434,-1.770119 -1.28518,-3.540829 -1.92968,-5.310546 -0.17774,0.08984 -0.35547,0.179687 -0.53321,0.269531 z m 51.39453,17.595703 c -0.31787,3.825686 -0.76978,7.630984 -2.38867,11.166016 -0.13903,0.449916 -0.6099,0.883758 -0.60671,1.313034 1.5877,2.401237 2.46359,5.171349 3.03692,7.900652 1.50236,7.596688 0.94251,15.372363 -0.29352,22.973416 -0.36319,0.72324 0.22352,0.978 0.79607,1.2564 2.57606,1.60527 4.74227,3.75752 7.00084,5.76353 0.45405,-2.55114 1.0925,-5.40593 3.32167,-7.01641 0.59745,-0.44356 1.28836,-0.73248 1.97325,-1.01094 -0.67018,-9.830787 -1.039,-19.87207 -4.34814,-29.254764 -1.7867,-5.153231 -4.56913,-9.940789 -8.11739,-14.080443 -0.49042,-0.941537 -0.24059,0.741869 -0.37432,0.989509 z m -30.45507,5.669922 c 2.11976,9.348045 3.56734,18.841447 3.10351,28.43164 -0.20374,3.875668 -0.78272,7.912996 -1.83621,11.605256 -1.5273,5.47193 -4.24171,10.626 -7.95896,14.87426 -5.11548,5.92146 -11.85853,10.12014 -18.56313,13.91975 -2.21261,1.25878 -4.43323,2.50001 -6.63975,3.76675 -1.75083,-0.52151 -3.50022,-1.04794 -5.25195,-1.56641 -5.80115,4.69296 -12.61587,8.45194 -19.92773,9.84961 -3.63327,0.68233 -7.36446,0.96582 -11.01581,0.21135 -6.14122,-1.24581 -11.723552,-4.22378 -17.425415,-6.69978 -1.590904,-0.71579 -3.197352,-1.39816 -4.808778,-2.06821 -1.896026,1.7021 -4.682994,2.46058 -5.931641,4.82617 -0.452501,0.88397 -0.09509,1.91971 0.0093,2.85249 0.992699,4.82923 4.379479,8.82146 8.269577,11.67655 6.224615,4.54616 14.508637,6.40041 21.992017,4.29329 6.72344,-1.85026 13.03622,-4.97206 18.98163,-8.57486 5.07134,-3.16601 10.02526,-6.72234 13.85293,-11.36661 0.57093,-0.73113 1.12173,-1.48037 1.5918,-2.28125 5.2953,0.75734 10.69297,-0.0928 15.80575,-1.51138 10.08627,-2.88971 19.52221,-8.84633 25.5247,-17.57053 4.4869,-6.49465 6.85894,-14.37835 6.95672,-22.253615 0.006,-7.950149 -3.12388,-15.571239 -7.40504,-22.148357 -2.82288,-4.397567 -6.2173,-8.38875 -9.75908,-12.219239 0.14518,0.651041 0.29036,1.302083 0.43555,1.953125 z m -4.88672,5.337892 c -7.93763,0.109529 -15.87666,0.220883 -23.8086,0.556641 -1.4868,3.894112 -3.82595,7.758182 -7.63085,9.747964 -3.13537,1.667193 -6.74552,1.887893 -10.2025,1.72821 -1.70657,-0.09339 -3.63919,-0.3597 -5.24138,0.549072 -2.4897,1.313097 -3.6287,4.106761 -4.36598,6.670941 -2.26753,7.238062 -4.80254,14.426476 -6.14718,21.911236 2.67431,-0.0372 5.08795,1.13111 7.75786,1.30569 4.48848,0.51579 9.01444,0.39028 13.52339,0.37399 -3.24954,-7.57452 -6.5233,-15.13888 -9.74609,-22.724603 4.14029,3.192951 8.17972,6.873494 13.30017,8.389053 5.4016,1.49755 11.30285,0.15549 15.94054,-2.860162 5.91466,-3.811334 10.24366,-9.63965 13.4369,-15.82237 1.61581,-3.144517 2.89971,-6.451413 3.91809,-9.835427 -0.24479,0.0033 -0.48958,0.0065 -0.73437,0.0098 z M 98.710938,78.67969 c -2.063994,0.07488 -4.181698,0.253364 -6.150228,0.842589 -8.041571,7.193058 -14.074053,16.232218 -20.137548,25.066471 -0.895549,1.29142 -1.793175,2.58141 -2.686834,3.87414 6.313024,0.30436 12.674402,-0.47703 18.953125,-0.17969 2.399337,0.16448 4.950647,0.41963 6.962891,1.86719 6.490476,-10.368756 13.328376,-20.530155 20.771486,-30.242185 -5.03505,0.05072 -9.96416,-0.93578 -14.98276,-1.192803 -0.91005,-0.04322 -1.819274,-0.04958 -2.730132,-0.03571 z m 23.224612,1.916015 c -3.38364,2.041423 -5.90831,5.182366 -8.31433,8.2535 -5.36398,7.122817 -9.72679,14.941805 -13.654423,22.930095 -0.974318,1.94521 -2.341136,3.62702 -4.209568,4.72404 -2.451902,1.50428 -5.173375,2.48467 -7.852932,3.49666 -0.711636,2.07264 -0.711752,4.53988 -2.434546,6.12513 -0.424959,0.41406 -0.132284,1.13197 -0.197094,1.67928 0.05503,2.78951 1.221366,5.59877 3.444545,7.34847 1.972259,1.61847 4.347526,2.62508 6.52511,3.92274 6.372698,2.99486 13.400148,5.20969 20.519108,4.56374 5.73487,-0.459 11.03759,-3.04232 15.76608,-6.18235 1.18373,-0.78527 2.36315,-1.57833 3.53695,-2.37889 -6.5336,0.47744 -13.02326,1.46579 -19.57469,1.26229 -2.03224,-0.0941 -4.09928,-0.29363 -6.02492,-0.96932 -0.34735,-1.17743 0.22899,-2.68842 -0.77929,-3.64843 -0.67441,-0.56568 -1.91894,-0.62189 -2.13867,-1.61133 0.29243,-1.08229 1.43437,-1.64548 2.29891,-2.24131 0.7858,-0.72473 1.51675,-1.77971 1.45109,-2.90518 -0.11694,-1.10404 -1.304,-1.48557 -2.23438,-1.64257 -1.20376,-0.2837 -1.61036,-1.89669 -0.78746,-2.77904 0.47585,-0.61838 1.4179,-0.63936 1.7816,-1.38893 1.1604,-2.04029 1.23853,-4.47034 1.67357,-6.7204 0.60077,-3.17536 1.45144,-6.30037 2.26964,-9.4258 1.95785,-7.377039 4.98415,-14.482271 9.14752,-20.888863 0.52886,-0.774756 0.97158,-1.602074 1.44247,-2.412204 -0.55143,0.296224 -1.10286,0.592448 -1.65429,0.888672 z m 91.11328,35.109375 c -1.93134,0.15706 -3.07141,2.03609 -3.60567,3.71007 -2.7758,7.90978 -7.26935,15.29539 -12.64733,21.69721 -3.56735,4.26602 -7.69273,8.03181 -12.14876,11.31615 -7.6977,5.84602 -15.93014,11.09886 -22.71192,18.05067 -4.13449,4.29211 -7.66991,9.35053 -9.36093,15.11848 -0.30627,1.7103 0.93205,3.4957 2.65058,3.798 1.63044,0.42298 3.13903,-0.68 4.09601,-1.89786 7.13107,-7.74424 14.97175,-14.81821 23.19648,-21.38023 7.45285,-5.86701 15.57972,-11.11963 21.70438,-18.49172 5.32267,-6.4118 9.95223,-13.58568 12.43849,-21.5946 0.47863,-1.80626 1.11361,-3.62986 1.08593,-5.51758 -0.0947,-2.25946 -1.73923,-4.52132 -4.07973,-4.78769 -0.20281,-0.0373 -0.41247,-0.0231 -0.61753,-0.0209 z m -143.605471,1.30273 c -0.398583,7.36211 2.293952,14.60328 6.354047,20.64765 0.816412,1.22658 1.732172,2.3816 2.665485,3.52032 1.775231,-1.87736 3.488408,-3.82079 5.404297,-5.55859 -1.292323,-1.0907 -2.061246,-2.64544 -2.420005,-4.27645 -0.411735,-1.72424 -0.860595,-3.52611 -2.115751,-4.85419 -1.184092,-1.50674 -2.946529,-2.54146 -3.707554,-4.3663 -0.630372,-1.32192 -0.980002,-2.73835 -1.389503,-4.12611 -1.586379,-0.56829 -3.173486,-1.13455 -4.759766,-1.70312 -0.01042,0.23893 -0.02083,0.47786 -0.03125,0.71679 z m 131.281251,0.71289 c -1.15921,0.0511 -2.39804,0.6563 -2.69201,1.86823 -1.98331,4.38223 -5.21658,8.04845 -8.53069,11.47554 -5.17486,5.19895 -10.93681,9.76025 -17.25386,13.48826 -3.32276,1.99101 -7.04956,3.39156 -10.41034,5.38644 -6.06187,3.46223 -11.76785,8.07196 -15.07599,14.34013 -2.67503,4.9862 -3.43397,10.73577 -3.36959,16.32539 -0.001,1.09991 0.0103,2.19975 0.02,3.29961 1.61611,-3.08197 3.40537,-6.08163 5.58762,-8.80094 6.06428,-7.64681 13.61013,-14.00737 21.65596,-19.47706 4.17389,-2.88445 8.74333,-5.15412 12.78572,-8.23372 9.15281,-6.7776 16.71578,-15.50745 23.00418,-24.95538 0.68345,-1.35815 -0.38781,-2.84139 -1.48474,-3.60755 -1.21374,-0.86312 -2.76309,-1.20685 -4.23624,-1.10895 z m -66.62109,39.46875 c -1.71558,1.31929 -3.61536,2.37861 -5.59571,3.24414 2.60734,5.32935 5.27525,10.73048 9.14979,15.27289 1.55909,1.8605 3.47573,3.38562 5.56896,4.60407 -1.10905,-5.02778 -2.74667,-9.92754 -4.81213,-14.64148 -1.25557,-2.96106 -2.58623,-5.89105 -3.76209,-8.88587 -0.18294,0.13542 -0.36588,0.27084 -0.54882,0.40625 z"
       inkscape:label="face" />
    <path
       id="path1115"
       style="display:inline;mix-blend-mode:normal;fill:#806600;fill-opacity:1;stroke:none;stroke-width:8.765;stroke-linecap:butt;stroke-linejoin:miter;stroke-miterlimit:4;stroke-dasharray:none;stroke-opacity:1;paint-order:markers stroke fill"
       inkscape:label="ears"
       d="m 183.08594,26.507812 c -2.30751,0.02595 -4.30496,1.439175 -5.93618,2.943793 -2.85488,2.705465 -3.89698,6.79808 -3.71323,10.62547 0.1665,4.266999 1.44329,8.411281 3.11425,12.31355 2.11309,1.847567 4.54314,3.515835 6.38086,5.544922 0.60182,0.645559 1.0589,1.47413 0.89063,2.384765 2.85949,-0.118089 5.45523,-1.750977 7.19175,-3.962046 2.99002,-3.756406 3.68111,-8.852809 3.07991,-13.498649 -0.70534,-5.00631 -2.6584,-9.844805 -5.62127,-13.939695 -1.16224,-1.480588 -2.96057,-2.470238 -4.86992,-2.409927 -0.17216,8.82e-4 -0.34482,-0.0072 -0.5168,-0.0022 z m -81.37696,4.324219 c -1.00047,0.250046 -0.81422,1.517365 -0.84227,2.310545 0.0511,3.276686 -0.0118,6.618648 0.83837,9.808596 0.20929,0.577203 0.30516,1.49845 0.95898,0.714844 1.7411,-1.298821 3.78812,-2.280386 5.9957,-2.327663 0.55294,-0.08994 -0.36348,-0.996924 -0.42737,-1.43099 -1.56344,-3.142789 -2.89788,-6.642944 -5.76364,-8.860488 -0.22576,-0.142523 -0.48642,-0.262802 -0.75977,-0.214844 z" />
    <path
       style="fill:#ff6600;stroke:none;stroke-width:0.18862"
       d="m 82.447266,110.92383 c -4.053227,0.041 -8.106767,0.20534 -12.160157,0.0859 0.01927,1.14967 0.738085,2.11836 1.662935,2.73782 1.45152,1.20141 3.526947,1.33597 4.846831,2.71335 0.969666,1.0866 1.13205,2.61577 1.85381,3.85088 0.56499,1.17107 1.157812,2.52928 2.500518,2.96873 1.09723,0.41409 2.621373,0.57418 3.481249,-0.37843 0.712385,-0.9105 0.6935,-2.16353 0.259104,-3.1911 -0.51517,-1.64856 0.708092,-3.57929 2.458053,-3.72274 2.322468,-0.20738 4.68644,-0.80437 6.648438,-2.10156 0.848351,-0.4911 0.418168,-1.86623 -0.490235,-2.03125 -2.233332,-0.67478 -4.602191,-0.76391 -6.920276,-0.8894 -1.37964,-0.0464 -2.759983,-0.0538 -4.14027,-0.0422 z"
       id="path5660"
       inkscape:label="nose" />
    <path
       id="path5656"
       style="fill:#ff6600;stroke:none;stroke-width:0.18862"
       d="m 143.31641,71.003908 c -2.7063,0.189756 -5.42776,0.274149 -8.12475,0.528578 -1.34947,0.294241 -2.70537,0.935821 -3.62485,1.961076 -0.72744,2.251465 -1.45481,4.502954 -2.18204,6.754487 3.29168,0.708496 6.94418,1.207881 10.08035,-0.342134 2.60166,-1.259577 3.95503,-4.119983 4.27296,-6.876967 0.0975,-0.683549 0.1271,-1.374127 0.17989,-2.062149 -0.20052,0.01237 -0.40104,0.02474 -0.60156,0.03711 z m -55.642582,-0.04297 c -0.556703,-0.003 -1.071606,0.224926 -1.554687,0.478515 -0.02683,2.399229 0.693578,4.820633 2.009765,6.824219 0.32593,0.305013 0.672218,1.139644 1.125,0.583984 1.672154,-1.098305 2.061921,-3.414025 1.619093,-5.246566 -0.349225,-1.44574 -1.661271,-2.681909 -3.199171,-2.640152 z"
       inkscape:label="eyes" />
    <path
       id="path2787"
       style="fill:#ff6600;stroke:none;stroke-width:0.18862"
       d="m 113.15907,117.39343 h 45.73197 v 2.60135 h -45.73197 z m -0.0132,7.90466 h 38.47527 v 2.62775 h -38.47527 z m -0.01,7.37328 h 33.41724 v 2.64784 H 113.13587 Z M 57.120027,117.32514 v 2.73781 h 7.885306 c -0.06486,-0.92067 -0.08567,-1.8342 -0.06821,-2.73781 z m 5.062739,7.89719 v 2.77967 h 4.281392 c -0.267515,-0.92028 -0.502042,-1.84814 -0.704347,-2.77967 z m 3.534669,7.37267 v 2.80035 h 3.637505 c -0.452543,-0.91012 -0.879986,-1.84432 -1.275892,-2.80035 z"
       inkscape:label="moustache" />
  </g>
</svg>
