<?xml version="1.0" encoding="UTF-8" standalone="no"?>
<svg
   xmlns:dc="http://purl.org/dc/elements/1.1/"
   xmlns:cc="http://creativecommons.org/ns#"
   xmlns:rdf="http://www.w3.org/1999/02/22-rdf-syntax-ns#"
   xmlns:svg="http://www.w3.org/2000/svg"
   xmlns="http://www.w3.org/2000/svg"
   xmlns:sodipodi="http://sodipodi.sourceforge.net/DTD/sodipodi-0.dtd"
   xmlns:inkscape="http://www.inkscape.org/namespaces/inkscape"
   width="184.73897mm"
   height="181.5817mm"
   viewBox="0 0 184.73897 181.58169"
   version="1.1"
   id="svg8"
   inkscape:version="1.0.2 (e86c870, 2021-01-15)"
   sodipodi:docname="liger_pb.svg">
  <defs
     id="defs2" />
  <sodipodi:namedview
     id="base"
     pagecolor="#ffffff"
     bordercolor="#666666"
     borderopacity="1.0"
     inkscape:pageopacity="0.0"
     inkscape:pageshadow="2"
     inkscape:zoom="0.98994949"
     inkscape:cx="330.39252"
     inkscape:cy="422.38512"
     inkscape:document-units="mm"
     inkscape:current-layer="layer5"
     inkscape:document-rotation="0"
     showgrid="false"
     inkscape:window-width="1920"
     inkscape:window-height="1121"
     inkscape:window-x="-9"
     inkscape:window-y="-9"
     inkscape:window-maximized="1" />
  <metadata
     id="metadata5">
    <rdf:RDF>
      <cc:Work
         rdf:about="">
        <dc:format>image/svg+xml</dc:format>
        <dc:type
           rdf:resource="http://purl.org/dc/dcmitype/StillImage" />
        <dc:title></dc:title>
      </cc:Work>
    </rdf:RDF>
  </metadata>
  <g
     inkscape:groupmode="layer"
     id="layer1"
     inkscape:label="base"
     transform="translate(2.148076,-1.1212623e-4)"
     style="display:inline">
    <path
       id="path958"
       style="display:inline;fill:#000000;stroke:none;stroke-width:0.18862"
       inkscape:label="moustache"
       d="m -2.148076,103.56542 c 0,2.14778 0,4.29557 0,6.44336 4.0872378,0 8.1744744,0 12.261712,0 -0.1936027,-2.31896 -0.2433597,-4.64678 -0.1874997,-6.97266 -4.0247379,0 -8.0494745,0 -12.0742123,0 0,0.17643 0,0.35287 0,0.5293 z m 5.0644502,7.89844 c 0,2.16145 0,4.32291 0,6.48437 3.0540352,0 6.1080694,0 9.1621058,0 -0.619785,-2.3314 -1.274471,-4.65459 -1.783204,-7.01367 -2.4596335,0 -4.9192673,0 -7.3789018,0 0,0.17643 0,0.35286 0,0.5293 z m 3.5332009,7.37304 c 0,2.16797 0,4.33594 0,6.50391 3.0364572,0 6.0729149,0 9.1093729,0 -1.107361,-2.33208 -2.240993,-4.65268 -3.242187,-7.0332 -1.955729,0 -3.9114568,0 -5.8671859,0 0,0.17643 0,0.35286 0,0.52929 z" />
    <path
       style="display:inline;fill:#000000;stroke:#aa0000;stroke-width:0;stroke-linecap:butt;stroke-linejoin:miter;stroke-miterlimit:4;stroke-dasharray:none;stroke-opacity:1;paint-order:markers stroke fill"
       d="m 109.51474,9.045051 c -14.430517,0.495244 -27.218707,3.429781 -38.582037,8.197266 -0.58636,-1.703755 -2.13926,-2.83309 -3.76099,-3.458249 -8.8574,-3.918201 -18.34414,-9.937565 -27.39274,-9.072397 -7.420983,2.925604 -8.12075,13.153704 -7.976665,19.37509 0.297675,5.337329 1.839582,10.643811 4.702665,15.17704 -2.145571,2.159313 -4.431261,4.185377 -6.521966,6.394269 -2.210278,3.305224 -1.721618,6.069359 -1.882326,9.371356 -1.649677,0.473745 -3.351646,1.769454 -3.336087,3.641151 -0.06893,1.84776 0.242027,3.706556 0.722847,5.485517 0.49822,1.702966 1.296226,3.323083 2.392537,4.720988 -7.781354,8.328611 -13.79569,18.063996 -20.375,27.318356 -0.676049,1.26079 -0.245735,2.97708 0.929688,3.78516 -2.668103,11.358982 3.571062,26.489972 11.035156,33.263672 6.157766,23.61003 28.426661,28.65285 47.809541,17.7355 5.70085,14.49715 20.27306,33.24531 33.501007,30.29185 3.10029,-0.87696 4.98266,-3.67451 7.13867,-5.84571 14.89233,-16.62434 35.89853,-26.62654 47.33391,-43.74883 4.58788,-6.63799 8.27766,-14.08577 9.57165,-22.11068 0.24542,-2.79122 -0.73381,-5.69666 -2.71415,-7.69517 2.97489,-12.300882 10.73781,-10.710622 20.48044,-5.710942 -0.0666,-12.374997 -1.14319,-24.93672 -5.30614,-36.67114 -3.73001,-10.442488 -9.64683,-20.073946 -17.17181,-28.211359 -2.07427,-2.364582 -3.83678,-4.990208 -5.83209,-7.409078 -0.80505,-0.653029 -1.90626,-0.898047 -2.92043,-0.716238 C 149.03881,14.752911 143.8736,6.924124 136.34523,2.349539 127.02547,-2.9576542 115.32606,1.350641 109.51474,9.045051 Z"
       id="path955"
       sodipodi:nodetypes="ccccccccccccccccccccccccccc"
       inkscape:label="egde" />
  </g>
  <g
     inkscape:groupmode="layer"
     id="layer5"
     inkscape:label="mono"
     style="display:inline"
     transform="translate(-54.971951,-12.175764)">
    <path
       id="path2873"
       style="display:inline;fill:#ffffff;stroke:none;stroke-width:8.765;stroke-linecap:butt;stroke-linejoin:miter;stroke-miterlimit:4;stroke-dasharray:none;stroke-opacity:1;paint-order:markers stroke fill"
       d="m 113.15907,117.39343 h 45.73197 v 2.60135 h -45.73197 z m -0.0132,7.90466 h 38.47527 v 2.62775 H 113.14587 Z M 184.18462,16.178857 c -0.4398,-0.0036 -0.88001,0.01077 -1.3193,0.04392 -5.36317,0.380253 -10.17475,3.673711 -13.19403,8.012948 -3.35271,4.77978 -4.56864,10.759673 -4.51135,16.519406 0.0529,2.067993 0.20788,4.174508 0.70694,6.173782 0.83225,1.092263 1.45484,2.377223 2.62464,3.158979 1.87723,1.554475 3.71831,3.164197 5.61775,4.684469 0.40134,0.104542 1.5635,1.028822 1.03249,0.128159 -0.42256,-1.296575 -1.45491,-2.261119 -2.04122,-3.483509 -3.25271,-5.671775 -3.67799,-12.762275 -1.41645,-18.865514 0.6567,-1.919841 1.68414,-3.879181 3.19929,-5.334558 2.08931,-2.05027 4.65918,-3.85831 7.61039,-4.313433 1.60683,-0.155405 3.17622,0.442177 4.55528,1.105359 4.26818,2.253997 7.08729,6.494111 8.88162,10.856701 0.89926,2.22404 1.5133,4.460092 1.84795,6.767029 0.77499,4.762907 -0.20263,9.776999 -2.54196,13.929899 -2.18859,4.001926 -5.97597,7.360269 -10.57765,8.120436 -0.71491,0.124306 -1.44007,0.18416 -2.15904,0.282151 2.03644,2.200511 4.28829,4.23539 5.97276,6.733956 5.05533,-1.201021 9.85445,-3.949907 12.9372,-8.202083 2.71391,-3.642969 4.09197,-8.148924 4.31601,-12.658141 0.53433,-7.996991 -1.2142,-16.288739 -5.64978,-23.032703 -2.92901,-4.390568 -6.9387,-8.309159 -11.97085,-10.144083 -1.28488,-0.301731 -2.6013,-0.472521 -3.92069,-0.483175 z m -86.485159,4.805392 -0.08423,0.05426 -0.04857,0.03204 c -2.15955,1.406694 -3.100747,4.003706 -3.71812,6.390307 -1.18336,5.08286 -0.96102,10.476659 0.47594,15.484327 0.58497,2.063287 1.513832,4.010083 2.644283,5.828067 0.82383,-1.120786 1.579274,-2.401671 2.93574,-2.94504 -1.750129,-3.600384 -2.693316,-7.700635 -2.486671,-11.707294 0.138732,-2.693202 0.749782,-5.526281 2.019515,-7.984009 2.725942,0.904336 4.661712,3.215786 6.330362,5.441011 1.48597,2.177167 2.93492,4.490157 3.52743,7.087939 0.0573,0.608214 -0.005,1.222028 0.002,1.832446 1.43023,-1.683861 3.23472,-2.966186 5.06016,-4.125328 2.7215,-1.683287 5.52329,-3.36264 8.62531,-4.232817 0.71159,-0.01302 1.44826,-0.715635 1.0356,-1.429369 -0.72159,-0.749025 -1.81373,-1.010624 -2.68717,-1.557012 -5.79054,-2.940587 -11.65561,-5.928151 -17.99636,-7.492049 -1.84475,-0.436045 -3.736529,-0.69746 -5.634801,-0.677478 z m 66.835709,4.57233 c -0.25717,0.01237 -0.51437,0.02484 -0.77152,0.03721 -10.20349,0.358859 -20.32005,2.460572 -29.86846,6.050277 -12.29884,4.595074 -23.95171,11.124433 -33.930234,19.693887 -2.423054,2.059641 -4.654362,4.328549 -6.865731,6.609416 -1.208342,1.053558 -2.574827,2.019959 -3.271118,3.519165 -0.421918,0.737102 -0.180361,1.663864 -0.320392,2.481503 -0.06581,1.093245 -0.08676,2.190218 -0.02739,3.284553 2.157249,2.023613 3.505028,4.653672 4.513938,7.416086 0.437877,0.997162 1.650973,0.706927 2.469615,0.464571 1.211863,-0.339495 2.354337,-0.876265 3.516582,-1.351338 2.45033,-7.394223 6.35602,-14.388843 11.6551,-20.211171 6.47907,-7.193608 14.85692,-12.485275 23.75101,-16.078605 8.77679,-3.562511 18.09301,-5.601168 27.44535,-6.790282 0.56603,-1.708891 1.1347,-3.417213 1.70325,-5.125269 z m 18.55081,0.951363 c -2.30751,0.02596 -4.30485,1.438871 -5.93607,2.94349 -2.85488,2.705465 -3.89722,6.798318 -3.71347,10.625709 0.1665,4.266999 1.44358,8.411191 3.11454,12.313459 2.11309,1.847567 4.54277,3.515794 6.38049,5.544881 0.60182,0.64556 1.05917,1.474232 0.8909,2.384867 2.85949,-0.118089 5.45529,-1.750962 7.19181,-3.962032 2.99002,-3.756406 3.68111,-8.853078 3.07991,-13.498917 -0.70534,-5.006311 -2.65849,-9.844829 -5.62136,-13.939719 -1.16224,-1.480587 -2.96064,-2.469982 -4.86999,-2.409671 -0.17215,7.94e-4 -0.34478,-0.0071 -0.51676,-0.0021 z m -81.27514,4.31395 c -0.0337,0.0011 -0.0676,0.0043 -0.1018,0.01035 -1.00047,0.250047 -0.81428,1.517274 -0.84233,2.310453 0.0511,3.276687 -0.012,6.618755 0.83819,9.808704 0.20929,0.577202 0.3053,1.498291 0.95912,0.714685 1.7411,-1.298821 3.78792,-2.28023 5.9955,-2.327508 0.55294,-0.08994 -0.36348,-0.997371 -0.42737,-1.431436 -1.56344,-3.142789 -2.89771,-6.642896 -5.76347,-8.86044 -0.19754,-0.124709 -0.42174,-0.23195 -0.65784,-0.224793 z m 59.88058,3.634919 c -0.1849,0.0254 -0.3696,0.05109 -0.55449,0.07648 -11.1972,1.484487 -22.42236,4.096983 -32.46416,9.421648 -7.70294,4.056407 -14.49535,9.99735 -19.06654,17.446995 -2.32536,3.715018 -4.08703,7.755774 -5.46737,11.908835 3.91507,1.856581 7.77721,4.351803 12.24112,4.495332 3.18652,0.148722 6.29044,-0.872956 9.13587,-2.222085 -1.70102,-3.742348 -2.90316,-8.023389 -1.77353,-12.105722 0.65952,-2.503225 2.16976,-4.697655 3.92327,-6.484876 3.65698,-3.659481 8.22976,-6.120157 12.6354,-8.77879 6.91166,-4.080952 14.34238,-7.08446 21.65191,-10.368878 -0.0882,-1.12948 -0.1743,-2.259378 -0.26148,-3.38894 z m 48.00379,6.24458 c 0.0397,0.610026 0.0796,1.219837 0.11937,1.829863 0.30174,3.712991 0.0892,7.43871 -0.0822,11.152291 3.5428,2.979714 6.49326,6.620909 8.81032,10.567829 4.20989,7.127401 6.41676,15.257163 7.58868,23.372733 0.55712,3.756649 0.9008,7.495386 1.16531,11.286132 1.67737,-0.495625 3.41803,0.02082 4.91081,0.814422 1.03396,0.521489 2.05467,1.065099 3.08922,1.585949 -0.35238,-11.218901 -2.18143,-22.525873 -6.69779,-32.864143 -2.23585,-5.124707 -4.99799,-10.02582 -8.24239,-14.579471 -3.3289,-4.569393 -7.46746,-8.490243 -10.66136,-13.165605 z m -52.74769,2.728515 c -0.17774,0.08984 -0.35556,0.17939 -0.5333,0.269235 -7.27872,3.756102 -14.74929,7.258616 -21.44572,12.021489 -2.97609,2.16762 -5.83659,4.641985 -7.76335,7.822261 0.20563,2.562608 0.41438,5.124865 0.62116,7.687386 1.75376,-1.58665 3.92082,-2.701671 6.25698,-3.107303 4.78076,-0.882555 9.65077,0.0053 14.37018,1.092438 0.94657,0.178469 1.87221,0.678505 2.84479,0.367419 7.52817,-1.024636 15.08399,-0.178395 22.59035,0.596863 0.0568,-4.365892 -2.10235,-8.386826 -4.6793,-11.772924 -2.88937,-3.754337 -6.42695,-6.994091 -10.33219,-9.666594 -0.6434,-1.770118 -1.28509,-3.540551 -1.9296,-5.31027 z m 51.02996,16.595887 c -0.20502,-0.0812 -0.0603,1.067966 -0.16898,1.269174 -0.31787,3.825684 -0.76959,7.630694 -2.38848,11.165726 -0.13903,0.449916 -0.60987,0.883822 -0.60668,1.313098 1.5877,2.401237 2.46369,5.171506 3.03702,7.90081 1.50236,7.596688 0.94251,15.37222 -0.29352,22.973269 -0.36319,0.72325 0.22326,0.97838 0.79581,1.25678 2.57606,1.60526 4.74204,3.75746 7.00061,5.76347 0.45405,-2.55114 1.09259,-5.40615 3.32176,-7.01663 0.59745,-0.44356 1.28863,-0.73233 1.97353,-1.01079 -0.67019,-9.830786 -1.03892,-19.872366 -4.34806,-29.25506 -1.7867,-5.153231 -4.56907,-9.940623 -8.11734,-14.080278 -0.092,-0.176538 -0.15835,-0.260829 -0.20567,-0.279569 z m -31.0596,4.985742 c 0.14518,0.651041 0.29044,1.302326 0.43563,1.953368 2.11976,9.348047 3.56752,18.841148 3.10369,28.431339 -0.20374,3.875669 -0.78309,7.913238 -1.83658,11.605498 -1.5273,5.47193 -4.24144,10.62576 -7.95869,14.87402 -5.11548,5.92146 -11.85861,10.12047 -18.56321,13.92008 -2.2126,1.25878 -4.43338,2.49996 -6.6399,3.7667 -1.75083,-0.52151 -3.50015,-1.04784 -5.25187,-1.56631 -5.80116,4.69296 -12.61561,8.45185 -19.92747,9.84952 -3.63327,0.68233 -7.36452,0.96583 -11.01587,0.21136 -6.14122,-1.24581 -11.723426,-4.22385 -17.425289,-6.69985 -1.590905,-0.71579 -3.197582,-1.39804 -4.809008,-2.06809 -1.896028,1.7021 -4.682776,2.46047 -5.931421,4.82606 -0.452501,0.88397 -0.09509,1.91976 0.0093,2.85254 0.992698,4.82923 4.379164,8.8212 8.269261,11.67629 6.224616,4.54616 14.508567,6.4004 21.991937,4.29328 6.72345,-1.85026 13.03638,-4.97187 18.98179,-8.57467 5.07134,-3.16601 10.02523,-6.72248 13.8529,-11.36675 0.57093,-0.73113 1.12157,-1.48012 1.59164,-2.281 5.2953,0.75734 10.69297,-0.093 15.80575,-1.51153 10.08627,-2.88971 19.52257,-8.84631 25.52506,-17.57051 4.4869,-6.49464 6.8589,-14.37815 6.95668,-22.253418 0.006,-7.95015 -3.12408,-15.571401 -7.40523,-22.148519 -2.82288,-4.397566 -6.21732,-8.388919 -9.7591,-12.219408 z m -89.244164,5.949508 c -0.556702,-0.003 -1.071346,0.224935 -1.554427,0.478522 -0.02683,2.399229 0.69351,4.820288 2.009698,6.823874 0.32593,0.305012 0.672214,1.140119 1.124995,0.58446 1.672154,-1.098304 2.061851,-3.414168 1.619023,-5.246709 -0.349224,-1.445739 -1.661388,-2.681904 -3.199289,-2.640147 z m 56.244114,0.0057 c -0.20052,0.01238 -0.40099,0.02484 -0.60151,0.03721 -2.70631,0.189756 -5.42758,0.274219 -8.12457,0.52865 -1.34947,0.294241 -2.70562,0.935863 -3.6251,1.961118 -0.72744,2.251467 -1.45455,4.502579 -2.18178,6.754112 3.29168,0.708496 6.94383,1.207915 10.08,-0.342099 2.60166,-1.259578 3.95519,-4.119599 4.27312,-6.876584 0.0975,-0.683548 0.12705,-1.374383 0.17984,-2.062406 z m 29.28348,1.326018 c -0.24479,0.0033 -0.48953,0.0065 -0.73432,0.0098 -7.93763,0.109529 -15.87694,0.220797 -23.80888,0.556556 -1.4868,3.894111 -3.82564,7.758459 -7.63054,9.748242 -3.13537,1.667193 -6.7455,1.887741 -10.20248,1.72806 -1.70657,-0.09339 -3.63935,-0.359452 -5.24154,0.54932 -2.4897,1.313098 -3.62886,4.10673 -4.36614,6.670911 -2.26753,7.23806 -4.80228,14.42657 -6.14692,21.91133 2.67431,-0.0372 5.08776,1.13076 7.75767,1.30534 4.48848,0.51579 9.01426,0.39043 13.52321,0.37414 -3.24955,-7.57452 -6.52287,-15.13899 -9.74566,-22.724713 4.14029,3.192949 8.17951,6.873592 13.29996,8.389153 5.4016,1.49755 11.30294,0.15536 15.94063,-2.860293 5.91466,-3.811333 10.24367,-9.639569 13.43691,-15.822289 1.61581,-3.144517 2.89972,-6.45156 3.9181,-9.835576 z m -73.12525,6.383591 c -0.45492,-0.0053 -0.909863,-0.0038 -1.36529,0.0031 -2.063993,0.07488 -4.181483,0.253619 -6.150012,0.842843 -8.041571,7.193058 -14.074293,16.232434 -20.137789,25.066695 -0.895549,1.29142 -1.792999,2.58145 -2.686659,3.87418 6.313025,0.30436 12.674642,-0.47718 18.953366,-0.17983 2.399337,0.16447 4.950638,0.4195 6.962881,1.86706 6.490473,-10.368755 13.328233,-20.530052 20.771343,-30.242083 -5.03505,0.05072 -9.96447,-0.935667 -14.98306,-1.192691 -0.45503,-0.02162 -0.90986,-0.03401 -1.36478,-0.03927 z m 23.51381,1.030944 -1.65416,0.888317 c -3.38364,2.041425 -5.90872,5.182627 -8.31474,8.253759 -5.36398,7.122819 -9.72631,14.941578 -13.653948,22.929868 -0.974317,1.94521 -2.341128,3.62724 -4.20956,4.72426 -2.451902,1.50428 -5.17371,2.48443 -7.853267,3.49642 -0.711637,2.07264 -0.711685,4.53996 -2.434477,6.12521 -0.42496,0.41406 -0.132077,1.13218 -0.196887,1.67949 0.05503,2.78951 1.221055,5.59868 3.444232,7.34838 1.97226,1.61848 4.347599,2.6251 6.525184,3.92276 6.372703,2.99486 13.400203,5.2095 20.519163,4.56355 5.73487,-0.459 11.03747,-3.04202 15.76596,-6.18205 1.06429,-0.70604 2.12483,-1.41944 3.1812,-2.13786 h 11.84476 v -2.6479 h -33.4176 v 2.6479 h 19.0314 c -5.55782,0.50385 -11.09543,1.19451 -16.67754,1.02112 -2.03224,-0.0941 -4.09931,-0.29376 -6.02495,-0.96945 -0.34736,-1.17743 0.22899,-2.68834 -0.77928,-3.64835 -0.67441,-0.56568 -1.91865,-0.62183 -2.13838,-1.61127 0.29243,-1.08229 1.43403,-1.64538 2.29857,-2.24121 0.7858,-0.72473 1.51673,-1.77978 1.45108,-2.90525 -0.11695,-1.10404 -1.3036,-1.48579 -2.23398,-1.64279 -1.20376,-0.2837 -1.61044,-1.89681 -0.78755,-2.77916 0.47586,-0.61838 1.41759,-0.63898 1.78129,-1.38855 1.1604,-2.04029 1.23876,-4.47046 1.6738,-6.72052 0.60077,-3.17536 1.45143,-6.30035 2.26963,-9.42578 1.95785,-7.377036 4.98439,-14.48257 9.14776,-20.889161 0.52886,-0.774756 0.9714,-1.601608 1.44229,-2.411738 z M 84.517837,110.92294 c -0.690075,-0.006 -1.380532,-0.005 -2.070674,0.001 -4.053228,0.041 -8.106592,0.20523 -12.159982,0.0858 0.01926,1.14967 0.738097,2.11835 1.662948,2.73781 1.45152,1.20141 3.526848,1.33615 4.846733,2.71353 0.969666,1.0866 1.131874,2.61582 1.853634,3.85093 0.564988,1.17107 1.157917,2.52884 2.500622,2.9683 1.09723,0.41409 2.621566,0.57433 3.48144,-0.37828 0.712385,-0.9105 0.693296,-2.16345 0.2589,-3.19102 -0.51517,-1.64856 0.708287,-3.57932 2.458247,-3.72277 2.32247,-0.20738 4.686175,-0.80449 6.648174,-2.10168 0.84835,-0.4911 0.41851,-1.86638 -0.489892,-2.0314 -2.233332,-0.67478 -4.602424,-0.76386 -6.920507,-0.88935 -0.689822,-0.0232 -1.379567,-0.0367 -2.069643,-0.0429 z m 128.840713,4.77801 c -0.1034,-8e-4 -0.20701,0.003 -0.30954,0.004 -1.93134,0.15706 -3.07172,2.03587 -3.60598,3.70985 -2.7758,7.90978 -7.26931,15.29557 -12.64729,21.69739 -3.56735,4.26602 -7.69259,8.03176 -12.14861,11.3161 -7.6977,5.84602 -15.93002,11.09877 -22.7118,18.05058 -4.13449,4.29211 -7.67016,9.35051 -9.36118,15.11846 -0.30627,1.7103 0.93195,3.49591 2.65048,3.79821 1.63044,0.42299 3.13941,-0.68021 4.09639,-1.89807 7.13107,-7.74424 14.97179,-14.81807 23.19652,-21.38009 7.45285,-5.86701 15.57944,-11.1198 21.7041,-18.49189 5.32267,-6.41181 9.95226,-13.58563 12.43852,-21.59455 0.47863,-1.80626 1.1134,-3.62978 1.08572,-5.51749 -0.0947,-2.25947 -1.73884,-4.52146 -4.07934,-4.78783 -0.1014,-0.0187 -0.20459,-0.024 -0.30799,-0.0248 z m -143.883722,0.59014 c -0.01042,0.23893 -0.02111,0.47782 -0.03152,0.71675 -0.398581,7.36211 2.294038,14.60347 6.354136,20.64784 0.816411,1.22658 1.732155,2.38148 2.665468,3.5202 1.775232,-1.87736 3.488433,-3.82104 5.404323,-5.55884 -1.292323,-1.0907 -2.061249,-2.64521 -2.420008,-4.27622 -0.411734,-1.72424 -0.860478,-3.52641 -2.115633,-4.85449 -1.184092,-1.50673 -2.946759,-2.5413 -3.707783,-4.36614 -0.630372,-1.32192 -0.98008,-2.73808 -1.389581,-4.12584 -1.586378,-0.56829 -3.173119,-1.13469 -4.759399,-1.70326 z m 131.804872,1.41387 c -0.18572,-0.002 -0.37086,0.003 -0.555,0.0155 -1.15921,0.0511 -2.39838,0.65669 -2.69235,1.86862 -1.9833,4.38223 -5.21611,8.04818 -8.53022,11.47527 -5.17486,5.19895 -10.9372,9.76057 -17.25425,13.48859 -3.32276,1.991 -7.04944,3.39135 -10.41022,5.38623 -6.06186,3.46223 -11.76794,8.07204 -15.07608,14.34021 -2.67503,4.9862 -3.43368,10.73548 -3.3693,16.3251 -0.001,1.09991 0.01,2.2002 0.0196,3.30006 1.61611,-3.08197 3.40552,-6.08171 5.58777,-8.80102 6.06428,-7.64681 13.61022,-14.00767 21.65605,-19.47736 4.17389,-2.88445 8.74339,-5.15401 12.78578,-8.23361 9.15281,-6.7776 16.71588,-15.50765 23.00428,-24.95558 0.68345,-1.35815 -0.38825,-2.84137 -1.48518,-3.60753 -1.06203,-0.75523 -2.38087,-1.11247 -3.68091,-1.12448 z m -66.62745,39.07823 c -0.18295,0.13542 -0.36587,0.27077 -0.54881,0.40618 -1.71558,1.31929 -3.61517,2.37872 -5.59552,3.24425 2.60734,5.32935 5.27529,10.73056 9.14983,15.27297 1.55908,1.8605 3.47542,3.3854 5.56865,4.60385 -1.10905,-5.02778 -2.74665,-9.92754 -4.81211,-14.64148 -1.25557,-2.96107 -2.58619,-5.89095 -3.76204,-8.88577 z"
       inkscape:label="internal" />
    <path
       id="path943"
       style="display:inline;fill:#ffffff;stroke:none;stroke-width:0.18862"
       d="m 57.120027,117.32514 v 2.73781 h 7.885306 c -0.06486,-0.92067 -0.08567,-1.8342 -0.06821,-2.73781 z m 5.062739,7.89719 v 2.77967 h 4.281392 c -0.267515,-0.92028 -0.502042,-1.84814 -0.704347,-2.77967 z m 3.534669,7.37267 v 2.80035 h 3.637505 c -0.452543,-0.91012 -0.879986,-1.84432 -1.275892,-2.80035 z"
       inkscape:label="moustache" />
  </g>
</svg>
