<?xml version="1.0" encoding="UTF-8" standalone="no"?>
<svg
   xmlns:dc="http://purl.org/dc/elements/1.1/"
   xmlns:cc="http://creativecommons.org/ns#"
   xmlns:rdf="http://www.w3.org/1999/02/22-rdf-syntax-ns#"
   xmlns:svg="http://www.w3.org/2000/svg"
   xmlns="http://www.w3.org/2000/svg"
   xmlns:xlink="http://www.w3.org/1999/xlink"
   xmlns:sodipodi="http://sodipodi.sourceforge.net/DTD/sodipodi-0.dtd"
   xmlns:inkscape="http://www.inkscape.org/namespaces/inkscape"
   width="184.73897mm"
   height="181.5817mm"
   viewBox="0 0 184.73897 181.58169"
   version="1.1"
   id="svg8"
   inkscape:version="1.0.2 (e86c870, 2021-01-15)"
   sodipodi:docname="liger_grad.svg">
  <defs
     id="defs2">
    <linearGradient
       inkscape:collect="always"
       id="linearGradient3925">
      <stop
         style="stop-color:#ffffff;stop-opacity:0"
         offset="0"
         id="stop3921" />
      <stop
         style="stop-color:#ffffff;stop-opacity:1"
         offset="1"
         id="stop3923" />
    </linearGradient>
    <linearGradient
       inkscape:collect="always"
       id="linearGradient3913">
      <stop
         style="stop-color:#ffffff;stop-opacity:1;"
         offset="0"
         id="stop3909" />
      <stop
         style="stop-color:#ffffff;stop-opacity:0;"
         offset="1"
         id="stop3911" />
    </linearGradient>
    <linearGradient
       inkscape:collect="always"
       id="linearGradient3877">
      <stop
         style="stop-color:#000000;stop-opacity:1;"
         offset="0"
         id="stop3873" />
      <stop
         style="stop-color:#000000;stop-opacity:0;"
         offset="1"
         id="stop3875" />
    </linearGradient>
    <linearGradient
       inkscape:collect="always"
       id="linearGradient3838">
      <stop
         style="stop-color:#ffffff;stop-opacity:1;"
         offset="0"
         id="stop3834" />
      <stop
         style="stop-color:#ffffff;stop-opacity:0;"
         offset="1"
         id="stop3836" />
    </linearGradient>
    <linearGradient
       inkscape:collect="always"
       id="linearGradient3826">
      <stop
         style="stop-color:#ffffff;stop-opacity:1;"
         offset="0"
         id="stop3822" />
      <stop
         style="stop-color:#ffffff;stop-opacity:0;"
         offset="1"
         id="stop3824" />
    </linearGradient>
    <linearGradient
       inkscape:collect="always"
       id="linearGradient3810">
      <stop
         style="stop-color:#000000;stop-opacity:0"
         offset="0"
         id="stop3806" />
      <stop
         style="stop-color:#000000;stop-opacity:1"
         offset="1"
         id="stop3808" />
    </linearGradient>
    <linearGradient
       inkscape:collect="always"
       id="linearGradient3758">
      <stop
         style="stop-color:#ffffff;stop-opacity:1;"
         offset="0"
         id="stop3754" />
      <stop
         style="stop-color:#ffffff;stop-opacity:0;"
         offset="1"
         id="stop3756" />
    </linearGradient>
    <linearGradient
       inkscape:collect="always"
       id="linearGradient3743">
      <stop
         style="stop-color:#ffffff;stop-opacity:1;"
         offset="0"
         id="stop3739" />
      <stop
         style="stop-color:#ffffff;stop-opacity:0;"
         offset="1"
         id="stop3741" />
    </linearGradient>
    <linearGradient
       inkscape:collect="always"
       id="linearGradient3731">
      <stop
         style="stop-color:#ffffff;stop-opacity:1;"
         offset="0"
         id="stop3727" />
      <stop
         style="stop-color:#ffffff;stop-opacity:0;"
         offset="1"
         id="stop3729" />
    </linearGradient>
    <linearGradient
       inkscape:collect="always"
       id="linearGradient3719">
      <stop
         style="stop-color:#000000;stop-opacity:0"
         offset="0"
         id="stop3715" />
      <stop
         style="stop-color:#000000;stop-opacity:1"
         offset="1"
         id="stop3717" />
    </linearGradient>
    <linearGradient
       inkscape:collect="always"
       id="linearGradient3690">
      <stop
         style="stop-color:#ffffff;stop-opacity:1;"
         offset="0"
         id="stop3686" />
      <stop
         style="stop-color:#ffffff;stop-opacity:0;"
         offset="1"
         id="stop3688" />
    </linearGradient>
    <linearGradient
       inkscape:collect="always"
       id="linearGradient3674">
      <stop
         style="stop-color:#ffffff;stop-opacity:1;"
         offset="0"
         id="stop3670" />
      <stop
         style="stop-color:#ffffff;stop-opacity:0;"
         offset="1"
         id="stop3672" />
    </linearGradient>
    <linearGradient
       inkscape:collect="always"
       id="linearGradient3656">
      <stop
         style="stop-color:#000000;stop-opacity:0"
         offset="0"
         id="stop3652" />
      <stop
         style="stop-color:#000000;stop-opacity:1"
         offset="1"
         id="stop3654" />
    </linearGradient>
    <linearGradient
       inkscape:collect="always"
       id="linearGradient3455">
      <stop
         style="stop-color:#000000;stop-opacity:0.66000003"
         offset="0"
         id="stop3451" />
      <stop
         style="stop-color:#ffffff;stop-opacity:0.89999998"
         offset="1"
         id="stop3453" />
    </linearGradient>
    <linearGradient
       inkscape:collect="always"
       id="linearGradient3408">
      <stop
         style="stop-color:#000000;stop-opacity:1;"
         offset="0"
         id="stop3404" />
      <stop
         style="stop-color:#000000;stop-opacity:0;"
         offset="1"
         id="stop3406" />
    </linearGradient>
    <linearGradient
       inkscape:collect="always"
       id="linearGradient3371">
      <stop
         style="stop-color:#000000;stop-opacity:1"
         offset="0"
         id="stop3367" />
      <stop
         style="stop-color:#ffffff;stop-opacity:0;"
         offset="1"
         id="stop3369" />
    </linearGradient>
    <linearGradient
       inkscape:collect="always"
       id="linearGradient2778">
      <stop
         style="stop-color:#000000;stop-opacity:1"
         offset="0"
         id="stop2774" />
      <stop
         style="stop-color:#000000;stop-opacity:0"
         offset="1"
         id="stop2776" />
    </linearGradient>
    <radialGradient
       inkscape:collect="always"
       xlink:href="#linearGradient2778"
       id="radialGradient2768"
       cx="103.97337"
       cy="39.889538"
       fx="103.97337"
       fy="39.889538"
       r="3.9848208"
       gradientTransform="matrix(-1.298917,-3.2863092,1.621595,-0.64093709,176.02286,409.46934)"
       gradientUnits="userSpaceOnUse" />
    <radialGradient
       inkscape:collect="always"
       xlink:href="#linearGradient3371"
       id="radialGradient3373"
       cx="576.17334"
       cy="423.76443"
       fx="576.17334"
       fy="423.76443"
       r="265.12619"
       gradientTransform="matrix(-0.02755154,1.4167093,-0.8616412,-0.01675682,960.12162,-376.22228)"
       gradientUnits="userSpaceOnUse" />
    <radialGradient
       inkscape:collect="always"
       xlink:href="#linearGradient3408"
       id="radialGradient3410"
       cx="569.91486"
       cy="422.48166"
       fx="569.91486"
       fy="422.48166"
       r="241.61456"
       gradientTransform="matrix(1.7933063,-0.25591765,0.14152577,0.99172149,-511.90904,153.26588)"
       gradientUnits="userSpaceOnUse" />
    <radialGradient
       inkscape:collect="always"
       xlink:href="#linearGradient3455"
       id="radialGradient3457"
       cx="570.56726"
       cy="457.21249"
       fx="570.56726"
       fy="457.21249"
       r="89.824265"
       gradientTransform="matrix(-1.7071936,0.21679718,-0.58085536,-4.5740103,1764.1267,2258.2117)"
       gradientUnits="userSpaceOnUse" />
    <radialGradient
       inkscape:collect="always"
       xlink:href="#linearGradient3656"
       id="radialGradient3667"
       cx="332.81613"
       cy="279.85028"
       fx="332.81613"
       fy="279.85028"
       r="8.5742388"
       gradientTransform="matrix(1.0873831,4.4473726,-1.6169735,0.39535021,422.64617,-1314.6339)"
       gradientUnits="userSpaceOnUse" />
    <radialGradient
       inkscape:collect="always"
       xlink:href="#linearGradient3674"
       id="radialGradient3676"
       cx="87.561836"
       cy="71.929466"
       fx="87.561836"
       fy="71.929466"
       r="2.1782653"
       gradientTransform="matrix(1.1245208,2.6427535,-2.1988074,0.93561681,147.25577,-226.65217)"
       gradientUnits="userSpaceOnUse" />
    <radialGradient
       inkscape:collect="always"
       xlink:href="#linearGradient3690"
       id="radialGradient3692"
       cx="331.60071"
       cy="270.40665"
       fx="331.60071"
       fy="270.40665"
       r="7.57128"
       gradientTransform="matrix(0.67978911,1.7270522,-1.6340757,0.64319237,548.04708,-473.07903)"
       gradientUnits="userSpaceOnUse" />
    <radialGradient
       inkscape:collect="always"
       xlink:href="#linearGradient3719"
       id="radialGradient3721"
       cx="329.2962"
       cy="440.7843"
       fx="329.2962"
       fy="440.7843"
       r="25.740942"
       gradientTransform="matrix(-1.4960242,0.22086734,-0.3784854,-2.5636355,993.22066,1501.8809)"
       gradientUnits="userSpaceOnUse" />
    <linearGradient
       inkscape:collect="always"
       xlink:href="#linearGradient3731"
       id="linearGradient3733"
       x1="267.5"
       y1="454.10715"
       x2="304.28574"
       y2="450.17859"
       gradientUnits="userSpaceOnUse" />
    <radialGradient
       inkscape:collect="always"
       xlink:href="#linearGradient3743"
       id="radialGradient3751"
       cx="274.07047"
       cy="389.01053"
       fx="274.07047"
       fy="389.01053"
       r="34.143555"
       gradientTransform="matrix(2.3828544,0.54461876,-0.13448469,0.58840696,-326.68362,34.26509)"
       gradientUnits="userSpaceOnUse" />
    <linearGradient
       inkscape:collect="always"
       xlink:href="#linearGradient3758"
       id="linearGradient3760"
       x1="83.749634"
       y1="121.1009"
       x2="62.791294"
       y2="106.35306"
       gradientUnits="userSpaceOnUse" />
    <radialGradient
       inkscape:collect="always"
       xlink:href="#linearGradient3810"
       id="radialGradient3812"
       cx="504.87039"
       cy="274.00839"
       fx="504.87039"
       fy="274.00839"
       r="27.463869"
       gradientTransform="matrix(0.74684329,1.3079238,-1.6597431,0.9477374,582.59491,-641.90954)"
       gradientUnits="userSpaceOnUse" />
    <radialGradient
       inkscape:collect="always"
       xlink:href="#linearGradient3826"
       id="radialGradient3828"
       cx="502.39536"
       cy="275.1225"
       fx="502.39536"
       fy="275.1225"
       r="20.556641"
       gradientTransform="matrix(0.24824828,0.68103393,-1.3545125,0.49374254,750.33347,-200.62803)"
       gradientUnits="userSpaceOnUse" />
    <radialGradient
       inkscape:collect="always"
       xlink:href="#linearGradient3838"
       id="radialGradient3840"
       cx="132.95071"
       cy="73.430878"
       fx="132.95071"
       fy="73.430878"
       r="2.4810846"
       gradientTransform="matrix(0.97513721,1.8062405,-2.5224517,1.3617992,188.53137,-266.67807)"
       gradientUnits="userSpaceOnUse" />
    <radialGradient
       inkscape:collect="always"
       xlink:href="#linearGradient3877"
       id="radialGradient3879"
       cx="179.31071"
       cy="50.87986"
       fx="179.31071"
       fy="50.87986"
       r="10.438189"
       gradientTransform="matrix(2.0603234,0.33905019,-0.54614406,3.318781,-162.33961,-174.14727)"
       gradientUnits="userSpaceOnUse" />
    <linearGradient
       inkscape:collect="always"
       xlink:href="#linearGradient3913"
       id="linearGradient3915"
       x1="151.62114"
       y1="127.92584"
       x2="120.5296"
       y2="121.36218"
       gradientUnits="userSpaceOnUse" />
    <linearGradient
       inkscape:collect="always"
       xlink:href="#linearGradient3925"
       id="linearGradient3927"
       x1="66.860222"
       y1="122.52924"
       x2="61.50758"
       y2="124.56087"
       gradientUnits="userSpaceOnUse" />
  </defs>
  <sodipodi:namedview
     id="base"
     pagecolor="#ffffff"
     bordercolor="#666666"
     borderopacity="1.0"
     inkscape:pageopacity="0.0"
     inkscape:pageshadow="2"
     inkscape:zoom="0.98994949"
     inkscape:cx="330.39252"
     inkscape:cy="422.38512"
     inkscape:document-units="mm"
     inkscape:current-layer="layer1"
     inkscape:document-rotation="0"
     showgrid="false"
     inkscape:window-width="1920"
     inkscape:window-height="1121"
     inkscape:window-x="-9"
     inkscape:window-y="-9"
     inkscape:window-maximized="1" />
  <metadata
     id="metadata5">
    <rdf:RDF>
      <cc:Work
         rdf:about="">
        <dc:format>image/svg+xml</dc:format>
        <dc:type
           rdf:resource="http://purl.org/dc/dcmitype/StillImage" />
        <dc:title></dc:title>
      </cc:Work>
    </rdf:RDF>
  </metadata>
  <g
     inkscape:groupmode="layer"
     id="layer1"
     inkscape:label="base"
     transform="translate(2.148076,-1.1212623e-4)"
     style="display:inline">
    <path
       id="path958"
       style="display:inline;fill:#000000;stroke:none;stroke-width:0.18862"
       inkscape:label="moustache"
       d="m -2.148076,103.56542 c 0,2.14778 0,4.29557 0,6.44336 4.0872378,0 8.1744744,0 12.261712,0 -0.1936027,-2.31896 -0.2433597,-4.64678 -0.1874997,-6.97266 -4.0247379,0 -8.0494745,0 -12.0742123,0 0,0.17643 0,0.35287 0,0.5293 z m 5.0644502,7.89844 c 0,2.16145 0,4.32291 0,6.48437 3.0540352,0 6.1080694,0 9.1621058,0 -0.619785,-2.3314 -1.274471,-4.65459 -1.783204,-7.01367 -2.4596335,0 -4.9192673,0 -7.3789018,0 0,0.17643 0,0.35286 0,0.5293 z m 3.5332009,7.37304 c 0,2.16797 0,4.33594 0,6.50391 3.0364572,0 6.0729149,0 9.1093729,0 -1.107361,-2.33208 -2.240993,-4.65268 -3.242187,-7.0332 -1.955729,0 -3.9114568,0 -5.8671859,0 0,0.17643 0,0.35286 0,0.52929 z" />
    <path
       style="display:inline;fill:#000000;stroke:#aa0000;stroke-width:0;stroke-linecap:butt;stroke-linejoin:miter;stroke-miterlimit:4;stroke-dasharray:none;stroke-opacity:1;paint-order:markers stroke fill"
       d="m 109.51474,9.045051 c -14.430517,0.495244 -27.218707,3.429781 -38.582037,8.197266 -0.58636,-1.703755 -2.13926,-2.83309 -3.76099,-3.458249 -8.8574,-3.918201 -18.34414,-9.937565 -27.39274,-9.072397 -7.420983,2.925604 -8.12075,13.153704 -7.976665,19.37509 0.297675,5.337329 1.839582,10.643811 4.702665,15.17704 -2.145571,2.159313 -4.431261,4.185377 -6.521966,6.394269 -2.210278,3.305224 -1.721618,6.069359 -1.882326,9.371356 -1.649677,0.473745 -3.351646,1.769454 -3.336087,3.641151 -0.06893,1.84776 0.242027,3.706556 0.722847,5.485517 0.49822,1.702966 1.296226,3.323083 2.392537,4.720988 -7.781354,8.328611 -13.79569,18.063996 -20.375,27.318356 -0.676049,1.26079 -0.245735,2.97708 0.929688,3.78516 -2.668103,11.358982 3.571062,26.489972 11.035156,33.263672 6.157766,23.61003 28.426661,28.65285 47.809541,17.7355 5.70085,14.49715 20.27306,33.24531 33.501007,30.29185 3.10029,-0.87696 4.98266,-3.67451 7.13867,-5.84571 14.89233,-16.62434 35.89853,-26.62654 47.33391,-43.74883 4.58788,-6.63799 8.27766,-14.08577 9.57165,-22.11068 0.24542,-2.79122 -0.73381,-5.69666 -2.71415,-7.69517 2.97489,-12.300882 10.73781,-10.710622 20.48044,-5.710942 -0.0666,-12.374997 -1.14319,-24.93672 -5.30614,-36.67114 -3.73001,-10.442488 -9.64683,-20.073946 -17.17181,-28.211359 -2.07427,-2.364582 -3.83678,-4.990208 -5.83209,-7.409078 -0.80505,-0.653029 -1.90626,-0.898047 -2.92043,-0.716238 C 149.03881,14.752911 143.8736,6.924124 136.34523,2.349539 127.02547,-2.9576542 115.32606,1.350641 109.51474,9.045051 Z"
       id="path955"
       sodipodi:nodetypes="ccccccccccccccccccccccccccc"
       inkscape:label="egde" />
  </g>
  <g
     inkscape:groupmode="layer"
     id="layer3"
     inkscape:label="color"
     style="display:inline"
     transform="translate(-54.971951,-12.175764)">
    <path
       style="display:inline;fill:#ff6600;stroke:none;stroke-width:8.765;stroke-linecap:butt;stroke-linejoin:miter;stroke-miterlimit:4;stroke-dasharray:none;stroke-opacity:1;paint-order:markers stroke fill"
       d="m 209.81445,42.53125 c 0.30174,3.712992 0.0894,7.438765 -0.082,11.152344 3.5428,2.979714 6.49319,6.621065 8.81025,10.567984 4.20989,7.1274 6.41703,15.256988 7.58895,23.372558 0.55712,3.756647 0.90075,7.495273 1.16526,11.28602 1.67737,-0.495626 3.41787,0.02075 4.91065,0.814355 1.03396,0.521489 2.0548,1.065189 3.08935,1.586039 -0.35238,-11.218903 -2.18147,-22.525688 -6.69783,-32.863958 -2.23585,-5.124706 -4.99788,-10.025751 -8.24228,-14.579404 -3.3289,-4.569393 -7.46756,-8.490654 -10.66146,-13.166016 0.0397,0.610026 0.0794,1.220052 0.11914,1.830078 z"
       id="path3471"
       inkscape:label="back" />
    <path
       id="path1014"
       style="display:inline;fill:#ffcc00;stroke:none;stroke-width:8.765;stroke-linecap:butt;stroke-linejoin:miter;stroke-miterlimit:4;stroke-dasharray:none;stroke-opacity:1;paint-order:markers stroke fill"
       d="m 182.86523,16.222656 c -5.36317,0.380253 -10.17473,3.673853 -13.194,8.01309 -3.35272,4.77978 -4.56869,10.759506 -4.5114,16.519239 0.0529,2.067994 0.20783,4.17477 0.70689,6.174045 0.83225,1.092263 1.45484,2.377149 2.62464,3.158906 1.87723,1.554475 3.71863,3.164113 5.61807,4.684385 0.40134,0.104542 1.5631,1.028923 1.03209,0.128259 -0.42256,-1.296575 -1.45472,-2.261262 -2.04103,-3.483652 -3.25271,-5.671775 -3.67805,-12.762324 -1.41651,-18.865564 0.6567,-1.919839 1.68436,-3.878858 3.19951,-5.334236 2.08931,-2.050269 4.65927,-3.858508 7.61048,-4.313631 1.60683,-0.155405 3.17617,0.442278 4.55523,1.10546 4.26818,2.253997 7.08721,6.49388 8.88154,10.856471 0.89926,2.22404 1.51337,4.460015 1.84802,6.766951 0.77499,4.762906 -0.20252,9.777471 -2.54185,13.930372 -2.18859,4.001927 -5.97645,7.360107 -10.57813,8.120272 -0.71491,0.124308 -1.43981,0.183829 -2.15878,0.281821 2.03644,2.20051 4.28819,4.235807 5.97266,6.734375 5.05533,-1.201021 9.85474,-3.949973 12.93749,-8.202149 2.71391,-3.642969 4.092,-8.148951 4.31604,-12.65817 0.53433,-7.996992 -1.2144,-16.288841 -5.64998,-23.032806 -2.92901,-4.390569 -6.93859,-8.309061 -11.97074,-10.143985 -1.71318,-0.402308 -3.48308,-0.572083 -5.24024,-0.439453 z m -85.298824,4.847656 c -2.159549,1.406694 -3.10031,4.003996 -3.717681,6.390598 -1.183362,5.082859 -0.961421,10.476447 0.475539,15.484116 0.584969,2.063286 1.514034,4.010428 2.644486,5.828412 0.823829,-1.120787 1.579081,-2.401945 2.935547,-2.945313 -1.750128,-3.600384 -2.692973,-7.700371 -2.486328,-11.707031 0.138733,-2.6932 0.749797,-5.526646 2.019531,-7.984375 2.72594,0.904336 4.66143,3.216181 6.33008,5.441406 1.48597,2.177167 2.93482,4.490107 3.52734,7.087891 0.0573,0.608213 -0.005,1.221613 0.002,1.832031 1.43023,-1.683861 3.23459,-2.965902 5.06003,-4.125046 2.7215,-1.683285 5.52344,-3.362466 8.62546,-4.232644 0.71159,-0.01301 1.44787,-0.715683 1.03521,-1.429419 -0.72159,-0.749024 -1.81363,-1.011007 -2.68708,-1.557396 -5.7905,-2.940587 -11.65565,-5.928109 -17.9964,-7.492007 -1.84475,-0.436045 -3.73661,-0.697142 -5.634881,-0.67716 l -0.08396,0.05432 z m 66.197264,4.523438 c -10.20348,0.358859 -20.32029,2.46085 -29.8687,6.050555 -12.29883,4.595075 -23.9516,11.124131 -33.930126,19.693586 -2.423056,2.059641 -4.65418,4.328773 -6.865547,6.60964 -1.208342,1.053557 -2.574839,2.019917 -3.271129,3.519124 -0.421919,0.737101 -0.180251,1.663561 -0.320283,2.481199 -0.06581,1.093245 -0.08679,2.190233 -0.02742,3.284568 2.157248,2.023613 3.504764,4.653603 4.513672,7.416016 0.437879,0.997163 1.65109,0.70724 2.469733,0.464883 1.211862,-0.339494 2.354349,-0.876529 3.516595,-1.351602 2.450335,-7.394222 6.355765,-14.388748 11.654845,-20.211075 6.47907,-7.193609 14.85738,-12.484941 23.75147,-16.078269 8.77679,-3.562512 18.09291,-5.60162 27.44525,-6.790734 0.56603,-1.70889 1.13458,-3.416945 1.70313,-5.125 -0.25717,0.01237 -0.51433,0.02474 -0.77149,0.03711 z m -2.62695,8.939453 c -11.1972,1.484486 -22.42231,4.097112 -32.46411,9.421777 -7.70293,4.056407 -14.49508,9.99729 -19.06627,17.446936 -2.32536,3.715017 -4.08733,7.755571 -5.46767,11.908631 3.91507,1.856583 7.77729,4.352019 12.2412,4.495547 3.18652,0.148721 6.29032,-0.87298 9.13575,-2.22211 -1.70102,-3.742347 -2.90281,-8.023116 -1.77318,-12.10545 0.65952,-2.503225 2.16941,-4.697815 3.92292,-6.485035 3.65698,-3.659482 8.22977,-6.12002 12.63542,-8.778655 6.91165,-4.08095 14.34281,-7.084723 21.65234,-10.369141 -0.0882,-1.129481 -0.17453,-2.259111 -0.26171,-3.388672 -0.1849,0.02539 -0.3698,0.05078 -0.55469,0.07617 z m -4.72266,9.166016 c -7.27872,3.756103 -14.74899,7.258302 -21.44542,12.021175 -2.9761,2.167622 -5.83681,4.642299 -7.76356,7.822575 0.20563,2.56261 0.41432,5.124979 0.62109,7.6875 1.75377,-1.58665 3.92098,-2.701653 6.25714,-3.107288 4.78076,-0.882553 9.65075,0.0053 14.37016,1.092462 0.94657,0.17847 1.87217,0.678473 2.84475,0.367388 7.52817,-1.024636 15.08409,-0.178601 22.59045,0.596657 0.0568,-4.365892 -2.10229,-8.38667 -4.67924,-11.772767 -2.88937,-3.754337 -6.42724,-6.994184 -10.33248,-9.666687 -0.6434,-1.770119 -1.28518,-3.540829 -1.92968,-5.310546 -0.17774,0.08984 -0.35547,0.179687 -0.53321,0.269531 z m 51.39453,17.595703 c -0.31787,3.825686 -0.76978,7.630984 -2.38867,11.166016 -0.13903,0.449916 -0.6099,0.883758 -0.60671,1.313034 1.5877,2.401237 2.46359,5.171349 3.03692,7.900652 1.50236,7.596688 0.94251,15.372363 -0.29352,22.973416 -0.36319,0.72324 0.22352,0.978 0.79607,1.2564 2.57606,1.60527 4.74227,3.75752 7.00084,5.76353 0.45405,-2.55114 1.0925,-5.40593 3.32167,-7.01641 0.59745,-0.44356 1.28836,-0.73248 1.97325,-1.01094 -0.67018,-9.830787 -1.039,-19.87207 -4.34814,-29.254764 -1.7867,-5.153231 -4.56913,-9.940789 -8.11739,-14.080443 -0.49042,-0.941537 -0.24059,0.741869 -0.37432,0.989509 z m -30.45507,5.669922 c 2.11976,9.348045 3.56734,18.841447 3.10351,28.43164 -0.20374,3.875668 -0.78272,7.912996 -1.83621,11.605256 -1.5273,5.47193 -4.24171,10.626 -7.95896,14.87426 -5.11548,5.92146 -11.85853,10.12014 -18.56313,13.91975 -2.21261,1.25878 -4.43323,2.50001 -6.63975,3.76675 -1.75083,-0.52151 -3.50022,-1.04794 -5.25195,-1.56641 -5.80115,4.69296 -12.61587,8.45194 -19.92773,9.84961 -3.63327,0.68233 -7.36446,0.96582 -11.01581,0.21135 -6.14122,-1.24581 -11.723552,-4.22378 -17.425415,-6.69978 -1.590904,-0.71579 -3.197352,-1.39816 -4.808778,-2.06821 -1.896026,1.7021 -4.682994,2.46058 -5.931641,4.82617 -0.452501,0.88397 -0.09509,1.91971 0.0093,2.85249 0.992699,4.82923 4.379479,8.82146 8.269577,11.67655 6.224615,4.54616 14.508637,6.40041 21.992017,4.29329 6.72344,-1.85026 13.03622,-4.97206 18.98163,-8.57486 5.07134,-3.16601 10.02526,-6.72234 13.85293,-11.36661 0.57093,-0.73113 1.12173,-1.48037 1.5918,-2.28125 5.2953,0.75734 10.69297,-0.0928 15.80575,-1.51138 10.08627,-2.88971 19.52221,-8.84633 25.5247,-17.57053 4.4869,-6.49465 6.85894,-14.37835 6.95672,-22.253615 0.006,-7.950149 -3.12388,-15.571239 -7.40504,-22.148357 -2.82288,-4.397567 -6.2173,-8.38875 -9.75908,-12.219239 0.14518,0.651041 0.29036,1.302083 0.43555,1.953125 z m -4.88672,5.337892 c -7.93763,0.109529 -15.87666,0.220883 -23.8086,0.556641 -1.4868,3.894112 -3.82595,7.758182 -7.63085,9.747964 -3.13537,1.667193 -6.74552,1.887893 -10.2025,1.72821 -1.70657,-0.09339 -3.63919,-0.3597 -5.24138,0.549072 -2.4897,1.313097 -3.6287,4.106761 -4.36598,6.670941 -2.26753,7.238062 -4.80254,14.426476 -6.14718,21.911236 2.67431,-0.0372 5.08795,1.13111 7.75786,1.30569 4.48848,0.51579 9.01444,0.39028 13.52339,0.37399 -3.24954,-7.57452 -6.5233,-15.13888 -9.74609,-22.724603 4.14029,3.192951 8.17972,6.873494 13.30017,8.389053 5.4016,1.49755 11.30285,0.15549 15.94054,-2.860162 5.91466,-3.811334 10.24366,-9.63965 13.4369,-15.82237 1.61581,-3.144517 2.89971,-6.451413 3.91809,-9.835427 -0.24479,0.0033 -0.48958,0.0065 -0.73437,0.0098 z M 98.710938,78.67969 c -2.063994,0.07488 -4.181698,0.253364 -6.150228,0.842589 -8.041571,7.193058 -14.074053,16.232218 -20.137548,25.066471 -0.895549,1.29142 -1.793175,2.58141 -2.686834,3.87414 6.313024,0.30436 12.674402,-0.47703 18.953125,-0.17969 2.399337,0.16448 4.950647,0.41963 6.962891,1.86719 6.490476,-10.368756 13.328376,-20.530155 20.771486,-30.242185 -5.03505,0.05072 -9.96416,-0.93578 -14.98276,-1.192803 -0.91005,-0.04322 -1.819274,-0.04958 -2.730132,-0.03571 z m 23.224612,1.916015 c -3.38364,2.041423 -5.90831,5.182366 -8.31433,8.2535 -5.36398,7.122817 -9.72679,14.941805 -13.654423,22.930095 -0.974318,1.94521 -2.341136,3.62702 -4.209568,4.72404 -2.451902,1.50428 -5.173375,2.48467 -7.852932,3.49666 -0.711636,2.07264 -0.711752,4.53988 -2.434546,6.12513 -0.424959,0.41406 -0.132284,1.13197 -0.197094,1.67928 0.05503,2.78951 1.221366,5.59877 3.444545,7.34847 1.972259,1.61847 4.347526,2.62508 6.52511,3.92274 6.372698,2.99486 13.400148,5.20969 20.519108,4.56374 5.73487,-0.459 11.03759,-3.04232 15.76608,-6.18235 1.18373,-0.78527 2.36315,-1.57833 3.53695,-2.37889 -6.5336,0.47744 -13.02326,1.46579 -19.57469,1.26229 -2.03224,-0.0941 -4.09928,-0.29363 -6.02492,-0.96932 -0.34735,-1.17743 0.22899,-2.68842 -0.77929,-3.64843 -0.67441,-0.56568 -1.91894,-0.62189 -2.13867,-1.61133 0.29243,-1.08229 1.43437,-1.64548 2.29891,-2.24131 0.7858,-0.72473 1.51675,-1.77971 1.45109,-2.90518 -0.11694,-1.10404 -1.304,-1.48557 -2.23438,-1.64257 -1.20376,-0.2837 -1.61036,-1.89669 -0.78746,-2.77904 0.47585,-0.61838 1.4179,-0.63936 1.7816,-1.38893 1.1604,-2.04029 1.23853,-4.47034 1.67357,-6.7204 0.60077,-3.17536 1.45144,-6.30037 2.26964,-9.4258 1.95785,-7.377039 4.98415,-14.482271 9.14752,-20.888863 0.52886,-0.774756 0.97158,-1.602074 1.44247,-2.412204 -0.55143,0.296224 -1.10286,0.592448 -1.65429,0.888672 z m 91.11328,35.109375 c -1.93134,0.15706 -3.07141,2.03609 -3.60567,3.71007 -2.7758,7.90978 -7.26935,15.29539 -12.64733,21.69721 -3.56735,4.26602 -7.69273,8.03181 -12.14876,11.31615 -7.6977,5.84602 -15.93014,11.09886 -22.71192,18.05067 -4.13449,4.29211 -7.66991,9.35053 -9.36093,15.11848 -0.30627,1.7103 0.93205,3.4957 2.65058,3.798 1.63044,0.42298 3.13903,-0.68 4.09601,-1.89786 7.13107,-7.74424 14.97175,-14.81821 23.19648,-21.38023 7.45285,-5.86701 15.57972,-11.11963 21.70438,-18.49172 5.32267,-6.4118 9.95223,-13.58568 12.43849,-21.5946 0.47863,-1.80626 1.11361,-3.62986 1.08593,-5.51758 -0.0947,-2.25946 -1.73923,-4.52132 -4.07973,-4.78769 -0.20281,-0.0373 -0.41247,-0.0231 -0.61753,-0.0209 z m -143.605471,1.30273 c -0.398583,7.36211 2.293952,14.60328 6.354047,20.64765 0.816412,1.22658 1.732172,2.3816 2.665485,3.52032 1.775231,-1.87736 3.488408,-3.82079 5.404297,-5.55859 -1.292323,-1.0907 -2.061246,-2.64544 -2.420005,-4.27645 -0.411735,-1.72424 -0.860595,-3.52611 -2.115751,-4.85419 -1.184092,-1.50674 -2.946529,-2.54146 -3.707554,-4.3663 -0.630372,-1.32192 -0.980002,-2.73835 -1.389503,-4.12611 -1.586379,-0.56829 -3.173486,-1.13455 -4.759766,-1.70312 -0.01042,0.23893 -0.02083,0.47786 -0.03125,0.71679 z m 131.281251,0.71289 c -1.15921,0.0511 -2.39804,0.6563 -2.69201,1.86823 -1.98331,4.38223 -5.21658,8.04845 -8.53069,11.47554 -5.17486,5.19895 -10.93681,9.76025 -17.25386,13.48826 -3.32276,1.99101 -7.04956,3.39156 -10.41034,5.38644 -6.06187,3.46223 -11.76785,8.07196 -15.07599,14.34013 -2.67503,4.9862 -3.43397,10.73577 -3.36959,16.32539 -0.001,1.09991 0.0103,2.19975 0.02,3.29961 1.61611,-3.08197 3.40537,-6.08163 5.58762,-8.80094 6.06428,-7.64681 13.61013,-14.00737 21.65596,-19.47706 4.17389,-2.88445 8.74333,-5.15412 12.78572,-8.23372 9.15281,-6.7776 16.71578,-15.50745 23.00418,-24.95538 0.68345,-1.35815 -0.38781,-2.84139 -1.48474,-3.60755 -1.21374,-0.86312 -2.76309,-1.20685 -4.23624,-1.10895 z m -66.62109,39.46875 c -1.71558,1.31929 -3.61536,2.37861 -5.59571,3.24414 2.60734,5.32935 5.27525,10.73048 9.14979,15.27289 1.55909,1.8605 3.47573,3.38562 5.56896,4.60407 -1.10905,-5.02778 -2.74667,-9.92754 -4.81213,-14.64148 -1.25557,-2.96106 -2.58623,-5.89105 -3.76209,-8.88587 -0.18294,0.13542 -0.36588,0.27084 -0.54882,0.40625 z"
       inkscape:label="face" />
    <path
       id="path1115"
       style="display:inline;mix-blend-mode:normal;fill:#806600;fill-opacity:1;stroke:none;stroke-width:8.765;stroke-linecap:butt;stroke-linejoin:miter;stroke-miterlimit:4;stroke-dasharray:none;stroke-opacity:1;paint-order:markers stroke fill"
       inkscape:label="ears"
       d="m 183.08594,26.507812 c -2.30751,0.02595 -4.30496,1.439175 -5.93618,2.943793 -2.85488,2.705465 -3.89698,6.79808 -3.71323,10.62547 0.1665,4.266999 1.44329,8.411281 3.11425,12.31355 2.11309,1.847567 4.54314,3.515835 6.38086,5.544922 0.60182,0.645559 1.0589,1.47413 0.89063,2.384765 2.85949,-0.118089 5.45523,-1.750977 7.19175,-3.962046 2.99002,-3.756406 3.68111,-8.852809 3.07991,-13.498649 -0.70534,-5.00631 -2.6584,-9.844805 -5.62127,-13.939695 -1.16224,-1.480588 -2.96057,-2.470238 -4.86992,-2.409927 -0.17216,8.82e-4 -0.34482,-0.0072 -0.5168,-0.0022 z m -81.37696,4.324219 c -1.00047,0.250046 -0.81422,1.517365 -0.84227,2.310545 0.0511,3.276686 -0.0118,6.618648 0.83837,9.808596 0.20929,0.577203 0.30516,1.49845 0.95898,0.714844 1.7411,-1.298821 3.78812,-2.280386 5.9957,-2.327663 0.55294,-0.08994 -0.36348,-0.996924 -0.42737,-1.43099 -1.56344,-3.142789 -2.89788,-6.642944 -5.76364,-8.860488 -0.22576,-0.142523 -0.48642,-0.262802 -0.75977,-0.214844 z" />
    <path
       style="fill:#ff6600;stroke:none;stroke-width:0.18862"
       d="m 82.447266,110.92383 c -4.053227,0.041 -8.106767,0.20534 -12.160157,0.0859 0.01927,1.14967 0.738085,2.11836 1.662935,2.73782 1.45152,1.20141 3.526947,1.33597 4.846831,2.71335 0.969666,1.0866 1.13205,2.61577 1.85381,3.85088 0.56499,1.17107 1.157812,2.52928 2.500518,2.96873 1.09723,0.41409 2.621373,0.57418 3.481249,-0.37843 0.712385,-0.9105 0.6935,-2.16353 0.259104,-3.1911 -0.51517,-1.64856 0.708092,-3.57929 2.458053,-3.72274 2.322468,-0.20738 4.68644,-0.80437 6.648438,-2.10156 0.848351,-0.4911 0.418168,-1.86623 -0.490235,-2.03125 -2.233332,-0.67478 -4.602191,-0.76391 -6.920276,-0.8894 -1.37964,-0.0464 -2.759983,-0.0538 -4.14027,-0.0422 z"
       id="path5660"
       inkscape:label="nose" />
    <path
       id="path5656"
       style="fill:#ff6600;stroke:none;stroke-width:0.18862"
       d="m 143.31641,71.003908 c -2.7063,0.189756 -5.42776,0.274149 -8.12475,0.528578 -1.34947,0.294241 -2.70537,0.935821 -3.62485,1.961076 -0.72744,2.251465 -1.45481,4.502954 -2.18204,6.754487 3.29168,0.708496 6.94418,1.207881 10.08035,-0.342134 2.60166,-1.259577 3.95503,-4.119983 4.27296,-6.876967 0.0975,-0.683549 0.1271,-1.374127 0.17989,-2.062149 -0.20052,0.01237 -0.40104,0.02474 -0.60156,0.03711 z m -55.642582,-0.04297 c -0.556703,-0.003 -1.071606,0.224926 -1.554687,0.478515 -0.02683,2.399229 0.693578,4.820633 2.009765,6.824219 0.32593,0.305013 0.672218,1.139644 1.125,0.583984 1.672154,-1.098305 2.061921,-3.414025 1.619093,-5.246566 -0.349225,-1.44574 -1.661271,-2.681909 -3.199171,-2.640152 z"
       inkscape:label="eyes" />
    <path
       id="path2787"
       style="fill:#ff6600;stroke:none;stroke-width:0.18862"
       d="m 113.15907,117.39343 h 45.73197 v 2.60135 h -45.73197 z m -0.0132,7.90466 h 38.47527 v 2.62775 h -38.47527 z m -0.01,7.37328 h 33.41724 v 2.64784 H 113.13587 Z M 57.120027,117.32514 v 2.73781 h 7.885306 c -0.06486,-0.92067 -0.08567,-1.8342 -0.06821,-2.73781 z m 5.062739,7.89719 v 2.77967 h 4.281392 c -0.267515,-0.92028 -0.502042,-1.84814 -0.704347,-2.77967 z m 3.534669,7.37267 v 2.80035 h 3.637505 c -0.452543,-0.91012 -0.879986,-1.84432 -1.275892,-2.80035 z"
       inkscape:label="moustache" />
  </g>
  <g
     id="layer4"
     inkscape:label="skin"
     style="display:inline"
     transform="translate(-54.971951,-12.175764)"
     inkscape:groupmode="layer">
    <g
       id="g3498"
       inkscape:label="grp_face"
       style="display:inline;stroke:none;stroke-width:0;stroke-miterlimit:4;stroke-dasharray:none"
       sodipodi:insensitive="true">
      <path
         id="path3300"
         style="display:inline;fill:url(#radialGradient3373);fill-opacity:1;stroke:none;stroke-width:0;stroke-linecap:butt;stroke-linejoin:miter;stroke-miterlimit:4;stroke-dasharray:none;stroke-opacity:1;paint-order:markers stroke fill"
         transform="scale(0.26458333)"
         d="m 392.69727,93.943359 c 9.02118,7.517661 20.74356,37.772921 25.93359,53.501951 3.2663,-2.91598 6.80519,-5.50398 10.42578,-7.91601 -4.98438,-11.36071 -7.90704,-21.38635 -22.97461,-39.27149 15.04736,3.18081 34.14574,11.93429 54.54688,22.47657 l -0.16993,0.12109 c 0.76889,-0.26903 1.54189,-0.52943 2.32032,-0.77344 -31.48465,-13.78395 -43.37195,-26.136114 -70.08203,-28.138671 z m 229.16796,2.648438 c -0.97198,0.04675 -1.94407,0.09388 -2.91601,0.140625 -34.04322,1.197309 -67.82918,7.534678 -100.10938,18.335938 l 0.63086,14.73633 c -66.12355,23.47308 -97.02997,58.76864 -134.79297,95.52539 -10.04572,9.62566 -24.75863,8.37126 -32.29492,11.97265 -5.72382,5.89239 -5.1482,13.79845 -0.50195,19.98438 5.05245,6.72673 14.8011,12.15804 15.31055,16.96875 2.37668,2.79246 3.58217,3.05036 4.54492,2.7793 1.01097,-15.31867 5.36695,-22.55629 9.09179,-31.31641 l 8.08008,-17.92969 c -2.11261,7.74391 -6.14349,29.97006 -5.14843,35.23438 9.18701,-22.08077 21.95093,-42.80646 38.16992,-60.62696 24.48782,-27.18844 56.15212,-47.18844 89.76758,-60.76953 33.17212,-13.46461 68.38304,-21.16977 103.73046,-25.66406 2.13933,-6.4588 4.28865,-12.91545 6.4375,-19.371093 z M 436.86914,306.16797 c -24.37036,3.52369 -44.85528,2.65684 -61.5625,11.99805 -8.56418,4.78834 -44.39595,43.88624 -67.0918,84.6914 24.49731,-0.11512 46.1423,1.23923 56.4961,8.41016 22.65797,-35.96458 46.45262,-71.23711 72.1582,-105.09961 z M 611.47266,134.83203 c -34.37881,11.00689 -73.68471,29.12886 -105.27735,47.7832 -36.09335,21.31184 -62.68718,43.00007 -74.85937,48.20508 -13.18383,14.92998 -17.82237,27.95986 -25.50782,41.66797 23.56389,23.2615 38.82479,9.84872 54.54883,-1.51562 -26.99655,-72.87584 109.99456,-106.98609 151.54883,-130.25782 -0.15208,-1.96071 -0.30224,-3.922 -0.45312,-5.88281 z m -15.82618,36.08203 c -43.63603,22.1461 -71.34529,40.64466 -97.38867,60.91602 -3.65617,3.10301 -6.1052,6.21871 -7.77929,9.32226 9.09716,-0.24753 22.75427,-2.85102 38.27148,-0.11328 7.21013,1.2721 14.83024,4.59845 23.29688,4.6875 14.05976,0.1479 30.88312,6.37219 46.46679,10.38672 12.91999,3.32835 25.06033,5.17334 38.01758,7.06055 6.90325,0.63781 13.80015,1.36114 20.68555,2.07226 0.21467,-16.50101 -7.9459,-31.69824 -17.68555,-44.49609 -10.92045,-14.18962 -24.29082,-26.43436 -39.05078,-36.53516 -1.61158,-4.43376 -3.22301,-8.8668 -4.83399,-13.30078 z m 50.85743,103.77344 -63.52149,4.39258 c -2.16907,0.14993 -3.17488,-0.20266 -3.4043,2.07617 -17.47268,73.98857 -105.18139,51.08872 -118.86328,58.12891 l -24.34179,89.58593 c 9.53142,0.26761 18.25724,4.2862 27.85937,4.91407 16.96434,1.94944 34.06963,1.47563 51.11133,1.41406 -12.28173,-28.62811 -24.65336,-57.21822 -36.83398,-85.88867 2.62499,2.02436 5.24256,4.10088 7.86718,6.18164 11.5124,2.16978 33.27219,7.89611 63.80274,-3.22461 13.16345,-4.79479 36.40829,-21.80522 56.59179,-40.23828 17.10706,-15.62341 28.19951,-32.38077 39.73243,-37.3418 z m -179.39258,26.56836 -6.25195,3.35742 c -12.78857,7.71562 -22.33217,19.58788 -31.42579,31.19531 -8.11383,10.77434 -15.61163,21.97525 -22.65039,33.46485 -19.67333,40.35621 -19.94422,70.24098 -29.96093,75.35937 -7.52074,3.85478 -15.30051,12.67484 -26.30665,16.2793 -13.66577,4.47545 -19.35519,20.09838 -14.0039,32.07812 11.71238,24.07461 65.39062,39.67145 83.9043,41.79297 29.14061,2.97002 56.31353,-6.83997 86.76367,-23.98242 -23.57951,1.87634 -47.02632,5.23679 -70.6836,4.50195 -7.6809,-0.35565 -15.49347,-1.11027 -22.77148,-3.66406 -1.31282,-4.45013 0.86551,-10.16068 -2.94531,-13.78906 -2.54895,-2.138 -7.25156,-2.35023 -8.08203,-6.08984 1.10524,-4.09055 5.41994,-6.21875 8.6875,-8.47071 2.96995,-2.73913 5.73253,-6.72672 5.48437,-10.98047 -0.44198,-4.17275 -4.92696,-5.61559 -8.44336,-6.20898 -4.54964,-1.07225 -6.08673,-7.16904 -2.97656,-10.50391 1.79849,-2.33718 5.35781,-2.41502 6.73242,-5.24804 4.38576,-7.71134 4.68193,-16.89623 6.32617,-25.40039 2.27063,-12.00137 5.48572,-23.81236 8.57813,-35.625 7.39975,-27.88173 18.83864,-54.73729 34.57422,-78.95118 1.99884,-2.92821 3.67143,-6.05332 5.45117,-9.11523 z m 62.80469,220.30469 c -21.92561,17.73717 -47.68103,31.94403 -75.31641,37.22656 -13.73204,2.57888 -27.83439,3.65037 -41.63477,0.79883 -0.96945,-0.19667 -1.9303,-0.41978 -2.89257,-0.63867 -23.14178,-2.39799 -48.84144,-10.06396 -77.92969,-24.30469 0.42286,30.40237 21.80622,74.62595 65.89258,74.04492 50.55795,-0.72787 99.19162,-39.45184 148.24609,-69.87305 1.04128,-1.37356 2.04832,-2.77332 3.00391,-4.20703 0.98057,-2.38727 1.90283,-5.49428 2.66796,-8.37109 -0.72826,0.41629 -1.45999,0.82648 -2.1875,1.24414 -6.61731,-1.97106 -13.22889,-3.96035 -19.8496,-5.91992 z m -230.63031,-6.38199 c -15.18961,-23.34141 -13.3927,-38.59404 -19.64285,-57.67857 4.78336,8.70644 12.30282,17.56838 20.54109,27.14022 6.1457,7.14047 4.70452,16.84834 9.81605,25.89551 0.66202,6.16592 -6.7168,3.56001 -10.71429,4.64284 z M 668.66602,245.71289 c 0.54871,2.46063 1.09773,4.92218 1.64648,7.38281 0.23938,1.05565 0.46841,2.1133 0.70312,3.16992 51.72532,76.08359 40.26349,200.07213 -60.75585,235.03516 -11.38983,8.00222 -23.40641,15.14727 -35.39844,21.94336 -7.63311,4.34256 -15.2882,8.63639 -22.90821,12.99219 -0.7651,2.87681 -1.68739,5.98382 -2.66796,8.37109 0.60613,-0.90942 1.19621,-1.82798 1.75,-2.77148 l 0.87304,-4.01367 c 64.87926,-3.73723 185.32195,-35.84153 177.92578,-181.94727 -4.70954,-19.20548 -13.53355,-37.46389 -24.2832,-53.97852 -10.66915,-16.62072 -23.49851,-31.70615 -36.88476,-46.18359 z m 92.07617,199.15625 c -0.70194,-0.006 -1.40168,0.0123 -2.09766,0.0586 -4.38126,0.19314 -9.06471,2.48198 -10.17578,7.0625 -7.49597,16.56276 -19.71446,30.41832 -32.24023,43.3711 -19.55853,19.64957 -41.33743,36.89035 -65.2129,50.98047 -12.55846,7.52507 -26.64354,12.81771 -39.3457,20.35742 -5.62382,3.21204 -11.16413,6.6899 -16.51172,10.45312 -12.70535,44.7612 -26.75491,62.50889 -33.60156,86.71094 0.53007,-0.68521 1.0491,-1.37843 1.5918,-2.05469 22.92011,-28.90133 51.44017,-52.94239 81.84961,-73.61523 15.77533,-10.90186 33.04589,-19.47971 48.32422,-31.11914 34.59329,-25.61613 63.17813,-58.6116 86.94531,-94.32031 2.58312,-5.13317 -1.46741,-10.73905 -5.61328,-13.63477 -4.01395,-2.85441 -8.99856,-4.20462 -13.91211,-4.25 z M 709.88477,76.771484 c 42.24162,34.042406 51.88114,83.215186 45.52734,114.005856 -7.25113,35.13919 -27.22081,57.80868 -65.19922,51.45704 6.55899,7.04003 13.65746,13.66726 19.49805,21.32617 12.72404,-4.1406 28.0267,-10.418 41.11718,-24.08985 29.85721,-31.62282 24.12157,-80.04889 13.41602,-123.90039 -2.36395,-4.91291 -5.04104,-9.67977 -8.05078,-14.25586 -2.0698,-3.102616 -4.28282,-6.142009 -6.63672,-9.080075 z M 364.16016,143.69336 c -10.06852,12.91025 -5.20371,24.35382 -1.35547,34.17969 1.15206,2.19877 2.38044,4.35852 3.6914,6.46679 2.87149,-3.90653 5.52724,-8.3226 9.94336,-10.59765 -7.26984,-9.20402 -12.96388,-28.08634 -12.27929,-30.04883 z M 688.92383,81.316406 c -16.00683,0.930845 -37.17875,14.316346 -46.85547,40.636714 -6.69744,18.21686 -7.87929,42.63489 1.95898,73.40626 4.64635,3.92766 9.28767,7.86387 14.02344,11.65429 1.51688,0.39512 5.90931,3.88846 3.90234,0.48438 -1.59706,-4.90044 -5.49886,-8.54596 -7.71484,-13.16602 -12.29371,-21.43663 -13.90107,-48.23537 -5.35351,-71.30273 2.48201,-7.25609 6.36524,-14.66147 12.09179,-20.16211 7.75532,-7.610402 17.26609,-14.3256 28.16992,-16.193362 z m 97.13281,145.552734 c -0.77489,-0.30691 -0.228,4.03641 -0.63867,4.79688 -1.2014,14.45928 -2.90871,28.84042 -9.02735,42.20117 -0.52546,1.70047 -2.30502,3.34043 -2.29296,4.96289 6.00075,9.07554 9.3116,19.54585 11.47851,29.86133 5.67821,28.71189 3.56224,58.09973 -1.10937,86.82812 -1.37269,2.73351 0.84384,3.69778 3.00781,4.75 5.26311,3.27971 10.06892,7.16815 14.72656,11.24219 1.84809,-45.58289 14.00777,-79.44766 3.40235,-156.75391 -5.35766,-9.52585 -11.65068,-18.52666 -18.76954,-26.83203 -0.34754,-0.66723 -0.59852,-0.98581 -0.77734,-1.05664 z"
         inkscape:label="p3" />
      <path
         id="path3306"
         style="fill:url(#radialGradient3410);fill-opacity:1;stroke:none;stroke-width:0;stroke-linecap:butt;stroke-linejoin:miter;stroke-miterlimit:4;stroke-dasharray:none;stroke-opacity:1;paint-order:markers stroke fill"
         transform="scale(0.26458333)"
         d="m 406.08203,100.25781 c 15.06757,17.88514 17.99023,27.91078 22.97461,39.27149 1.04782,-0.69806 2.10097,-1.38531 3.1582,-2.05664 8.99681,-5.56466 18.22672,-11.11215 28.24414,-14.61719 l 0.16993,-0.12109 C 440.22777,112.1921 421.12939,103.43862 406.08203,100.25781 Z m 247.80469,172.98438 c -0.64132,0.009 -1.28251,0.0168 -1.92383,0.0254 -13.67459,1.10866 -25.4133,20.69891 -45.19141,38.76172 -20.1835,18.43306 -43.42834,35.44349 -56.59179,40.23828 -30.53055,11.12072 -52.29034,5.39439 -63.80274,3.22461 13.02153,10.32325 26.29393,20.75817 42.40039,25.52539 20.4155,5.66003 42.71977,0.58719 60.24805,-10.81055 22.35462,-14.40504 38.71622,-36.43302 50.78516,-59.80078 6.09768,-11.86665 10.94483,-24.34567 14.79101,-37.11523 -0.23889,-0.0227 -0.47741,-0.0376 -0.71484,-0.0488 z m 151.33721,164.06835 c -7.29955,0.59362 -11.60847,7.69546 -13.62772,14.02232 -10.49122,29.89523 -27.47471,57.80934 -47.80094,82.0052 -13.4829,16.12354 -29.07488,30.35645 -45.91657,42.7697 -29.09367,22.0952 -60.20841,41.94845 -85.84033,68.22301 -15.62642,16.22215 -28.98864,35.34058 -35.37989,57.14071 -1.15756,6.46413 3.52271,13.21209 10.01794,14.35465 6.16229,1.59866 11.86405,-2.57008 15.48098,-7.17302 26.95208,-29.26957 56.58614,-56.00583 87.67174,-80.80717 28.16825,-22.17452 58.88398,-42.02695 82.0323,-69.88996 20.11718,-24.23358 37.61473,-51.34746 47.01162,-81.61739 1.80899,-6.82681 4.20892,-13.71916 4.1043,-20.85385 -0.35792,-8.53969 -6.57347,-17.08845 -15.41945,-18.0952 -0.76653,-0.14098 -1.55895,-0.0873 -2.33398,-0.079 z m 0.37959,-182.55273 c 10.60542,77.30625 -1.55426,111.17102 -3.40235,156.75391 3.95858,3.46257 7.81055,7.0577 11.73242,10.54101 1.7161,-9.6421 4.12948,-20.43267 12.55469,-26.51953 2.25808,-1.67644 4.87042,-2.76786 7.45899,-3.82031 -2.53297,-37.15573 -3.92661,-75.10816 -16.4336,-110.57031 -3.16823,-9.13788 -7.17487,-17.96549 -11.91015,-26.38477 z m -12.60401,-94.00978 c 1.14043,14.03336 0.33789,28.11502 -0.30993,42.1506 13.39012,11.26191 24.5412,25.02449 33.29859,39.94198 15.91139,26.93821 24.25334,57.66421 28.68264,88.33723 2.10565,14.19835 3.40441,28.32859 4.40414,42.65583 6.33966,-1.87324 12.91793,0.0784 18.55993,3.07787 3.90788,1.97098 7.76618,4.02591 11.67629,5.99448 -1.33183,-42.40215 -8.24493,-85.13646 -25.31464,-124.21024 -8.45045,-19.36896 -18.88962,-37.8926 -31.15192,-55.10326 -12.58167,-17.27014 -28.22385,-32.09066 -40.29528,-49.76132 0.15004,2.30561 0.30009,4.61122 0.45029,6.91683 z M 460.37695,270.97266 c -15.72404,11.36434 -30.98494,24.77712 -54.54883,1.51562 l 2.41602,11.89258 c 10.01601,4.95051 20.30151,9.32562 31.61719,9.68945 12.04354,0.5621 23.77492,-3.29937 34.52929,-8.39843 -0.0681,-0.14984 -0.13349,-0.30284 -0.20117,-0.45313 z"
         inkscape:label="p2" />
      <path
         id="path3282"
         style="display:inline;fill:url(#radialGradient3457);fill-opacity:1;stroke:none;stroke-width:0;stroke-linecap:butt;stroke-linejoin:miter;stroke-miterlimit:4;stroke-dasharray:none;stroke-opacity:1;paint-order:markers stroke fill"
         inkscape:label="p1"
         transform="scale(0.26458333)"
         d="M 611.92578,140.71484 C 570.37151,163.98657 433.3804,198.09682 460.37695,270.97266 l 13.81055,14.24414 c -6.32009,-14.03629 -10.72401,-30.03384 -6.5,-45.29883 2.49267,-9.46101 8.20071,-17.75492 14.82812,-24.50977 13.82166,-13.83111 31.10459,-23.1313 47.75586,-33.17968 26.12278,-15.42407 54.20742,-26.77591 81.83399,-39.18946 -0.0605,-0.77463 -0.1196,-1.54955 -0.17969,-2.32422 z m -96.92383,99.09375 c -9.77086,-0.11734 -18.23083,1.17253 -24.52343,1.34375 -4.99822,9.26607 -3.09076,18.4143 -5.79493,26.7168 6.33524,-5.27707 13.93786,-8.98137 22.08789,-10.39648 18.06902,-3.33564 36.47536,0.0199 54.3125,4.1289 1.63419,0.30812 3.25332,0.86229 4.87891,1.26953 l 5.42578,0.24024 c 0.14893,-0.038 0.29777,-0.0733 0.44727,-0.1211 21.54752,-2.93276 43.15449,-1.80663 64.69531,0.1836 -12.95725,-1.88721 -25.09759,-3.7322 -38.01758,-7.06055 -15.58367,-4.01453 -32.40703,-10.23882 -46.46679,-10.38672 -8.46664,-0.0891 -16.08675,-3.4154 -23.29688,-4.6875 -4.7838,-0.84402 -9.39325,-1.17817 -13.74805,-1.23047 z m 80.15625,337.34375 c -16.43807,11.56788 -31.03462,25.87059 -40.46875,43.7461 -10.11035,18.84548 -12.9777,40.57505 -12.73437,61.70117 -0.004,4.15714 0.0376,8.3157 0.0742,12.47266 5.70623,-10.88195 12.0014,-21.4803 19.52734,-31.20899 6.84665,-24.20205 20.89621,-41.94974 33.60156,-86.71094 z" />
      <path
         id="path3222"
         style="display:inline;fill:#ffffff;stroke:none;stroke-width:0;stroke-linecap:butt;stroke-linejoin:miter;stroke-miterlimit:4;stroke-dasharray:none;stroke-opacity:1;paint-order:markers stroke fill"
         inkscape:label="p0"
         transform="scale(0.26458333)"
         d="m 654.61914,273.23242 c -0.92519,0.0125 -1.8502,0.0246 -2.77539,0.0371 -30.00049,0.41397 -60.00734,0.83451 -89.98633,2.10352 -5.6194,14.7179 -14.45912,29.32331 -28.83984,36.84375 -11.85022,6.3012 -25.4948,7.13477 -38.56055,6.53125 -6.45003,-0.35297 -13.75502,-1.35856 -19.81055,2.07617 -9.40989,4.96289 -13.71538,15.5215 -16.50195,25.21289 -8.57019,27.35645 -18.15032,54.5256 -23.23242,82.81445 0.49083,-0.007 0.97648,0.004 1.46289,0.0176 l 24.33984,-89.58398 c 13.68189,-7.04019 101.3906,15.85966 118.86328,-58.12891 0.22942,-2.27883 1.23523,-1.92624 3.4043,-2.07617 l 71.35156,-4.9336 c 0.0931,-0.30518 0.19322,-0.60854 0.28516,-0.91406 z M 406.7832,369.27344 c -10.54836,17.21845 -20.05162,35.09075 -28.95508,53.19922 -3.68246,7.35197 -8.84836,13.70925 -15.91015,17.85546 -9.26703,5.68547 -19.55418,9.39 -29.68164,13.21485 -2.68965,7.8336 -2.68983,17.15889 -9.20117,23.15039 -1.60615,1.56495 -0.49919,4.27908 -0.74414,6.34766 0.20798,10.54303 4.61501,21.16039 13.01757,27.77343 7.45421,6.11706 16.43187,9.92163 24.66211,14.82617 24.08579,11.31916 50.64643,19.68944 77.55274,17.24805 21.6751,-1.7348 41.71643,-11.4974 59.58789,-23.36523 4.47394,-2.96795 8.93273,-5.96645 13.36914,-8.99219 -1.10103,0.0805 -2.20038,0.18197 -3.30078,0.26953 -30.45014,17.14245 -57.62306,26.95244 -86.76367,23.98242 -18.51368,-2.12152 -72.19192,-17.71836 -83.9043,-41.79297 -5.35129,-11.97974 0.33813,-27.60267 14.0039,-32.07812 11.00614,-3.60446 18.78591,-12.42452 26.30665,-16.2793 10.01671,-5.11839 10.2876,-35.00316 29.96093,-75.35937 z m -144.20117,70.25195 c -0.0394,0.90304 -0.0798,1.80594 -0.11914,2.70899 -1.50645,27.82529 8.67038,55.19419 24.01563,78.03906 3.08565,4.63589 6.54673,9.00086 10.07421,13.30468 6.70954,-7.09553 13.18463,-14.4417 20.42579,-21.00976 -4.88437,-4.12233 -7.79055,-9.99766 -9.14649,-16.16211 -1.55616,-6.51681 -3.2522,-13.32814 -7.99609,-18.34766 -4.47531,-5.69476 -11.13736,-9.60492 -14.01367,-16.50195 -2.38251,-4.99623 -3.70424,-10.34867 -5.25196,-15.59375 -5.99576,-2.14787 -11.99289,-4.28857 -17.98828,-6.4375 z M 279.64258,457.5 c 4.78336,8.70644 12.30274,17.56878 20.54101,27.14062 6.1457,7.14048 4.70488,16.84737 9.81641,25.89454 0.66202,6.16592 -6.71735,3.55974 -10.71484,4.64257 C 284.09555,491.83632 285.89273,476.58454 279.64258,457.5 Z m 98.59765,-160.14062 c -1.71938,-0.0199 -3.43885,-0.0145 -5.16015,0.0117 -7.80092,0.28301 -15.80403,0.95856 -23.24414,3.18555 -30.39334,27.18636 -53.19418,61.35093 -76.11133,94.74024 -3.38475,4.88095 -6.77669,9.75666 -10.1543,14.64257 23.86025,1.15034 47.90416,-1.80349 71.63477,-0.67968 9.06836,0.62165 18.71107,1.58554 26.3164,7.05664 1.05612,-1.68718 2.1284,-3.36464 3.18946,-5.04883 -10.3538,-7.17093 -31.99879,-8.52528 -56.4961,-8.41016 22.69585,-40.80516 58.52762,-79.90306 67.0918,-84.6914 16.70722,-9.34121 37.19214,-8.47436 61.5625,-11.99805 1.05143,-1.38507 2.10036,-2.77203 3.1582,-4.15235 -19.03011,0.1917 -37.66097,-3.53638 -56.6289,-4.50781 -1.71978,-0.0817 -3.43882,-0.12856 -5.15821,-0.14843 z m -49.31054,229.08789 c -7.16609,6.43313 -17.69868,9.29942 -22.41797,18.24023 -1.71024,3.34099 -0.35939,7.25578 0.0352,10.78125 3.75193,18.25221 16.55117,33.33997 31.2539,44.13086 23.52611,17.18234 54.8355,24.19048 83.11914,16.22656 25.41143,-6.99311 49.27135,-18.79132 71.74219,-32.4082 19.16727,-11.96602 37.89064,-25.40779 52.35742,-42.96094 0.42463,-0.54377 0.84278,-1.09254 1.25977,-1.64258 -49.054,30.42108 -97.68668,69.14519 -148.24414,69.87305 -44.08636,0.58103 -65.46972,-43.64255 -65.89258,-74.04492 29.08825,14.24073 54.78791,21.9067 77.92969,24.30469 -22.07666,-5.02184 -42.31655,-15.71635 -62.9668,-24.6836 -6.01287,-2.70535 -12.08535,-5.28393 -18.17578,-7.8164 z M 518.83984,115.06836 c -4.28697,1.43446 -8.54844,2.94067 -12.77929,4.53125 -46.48377,17.36721 -90.52612,42.0451 -128.24024,74.43359 -9.158,7.78447 -17.59129,16.35987 -25.94922,24.98047 -4.56696,3.98195 -9.73163,7.63449 -12.36328,13.30078 -1.59465,2.7859 -0.68168,6.28862 -1.21093,9.37891 -0.24874,4.13195 -0.32791,8.27799 -0.10352,12.41406 8.15338,7.6483 13.24735,17.58868 17.06055,28.0293 1.65497,3.7688 6.2399,2.67185 9.33398,1.75586 4.58027,-1.28313 8.89828,-3.31187 13.29102,-5.10742 1.76132,-5.31505 3.72328,-10.57604 5.88086,-15.76172 -0.99506,-5.26432 3.03582,-27.49047 5.14843,-35.23438 l -8.08008,17.92969 c -3.72484,8.76012 -8.08082,15.99774 -9.09179,31.31641 -0.96275,0.27106 -2.16824,0.0132 -4.54492,-2.7793 -0.50945,-4.81071 -10.2581,-10.24202 -15.31055,-16.96875 -4.64625,-6.18593 -5.22187,-14.09199 0.50195,-19.98438 7.53629,-3.60139 22.2492,-2.34699 32.29492,-11.97265 37.763,-36.75675 68.66942,-72.05231 134.79297,-95.52539 z m 92.27735,15.16211 c -0.69884,0.096 -1.39691,0.1931 -2.09571,0.28906 -42.32012,5.61066 -84.74595,15.48466 -122.69921,35.60938 -29.11344,15.3313 -54.78557,37.78526 -72.0625,65.9414 -8.78877,14.04101 -15.44703,29.31316 -20.66407,45.00977 4.87271,2.3107 9.73077,4.87017 14.64844,7.30078 l -2.41602,-11.89258 c 7.68545,-13.70811 12.32399,-26.73799 25.50782,-41.66797 12.17219,-5.20501 38.76602,-26.89324 74.85937,-48.20508 31.59264,-18.65434 70.89854,-36.77631 105.27735,-47.7832 -0.11803,-1.53378 -0.2371,-3.06781 -0.35547,-4.60156 z m -241.85938,-50.919923 -0.31836,0.205078 -0.18359,0.121094 c -8.16208,5.316638 -11.71936,15.132118 -14.05274,24.152341 -4.47253,19.21081 -3.6322,39.59682 1.79883,58.52344 1.53253,5.4055 3.70009,10.59326 6.30274,15.56055 -3.84824,-9.82587 -8.71305,-21.26944 1.35547,-34.17969 -0.68459,1.96249 5.00945,20.84481 12.27929,30.04883 0.37249,-0.1919 0.75355,-0.37346 1.15235,-0.53321 -6.61466,-13.60775 -10.17946,-29.10476 -9.39844,-44.24804 0.52434,-10.17903 2.83382,-20.88673 7.63281,-30.175784 10.30277,3.417964 17.61907,12.154154 23.92578,20.564454 5.61627,8.22866 11.09259,16.97067 13.33203,26.78906 0.21657,2.29876 -0.0207,4.61869 0.006,6.92578 1.71503,-2.01916 3.58387,-3.8719 5.54102,-5.61914 -5.19003,-15.72903 -16.91241,-45.98429 -25.93359,-53.501951 26.71008,2.002557 38.59738,14.354721 70.08203,28.138671 0.67481,-0.21152 1.35282,-0.41601 2.03515,-0.60742 2.68948,-0.0492 5.47373,-2.70476 3.91407,-5.40234 -2.72727,-2.83096 -6.85503,-3.81968 -10.15625,-5.88477 -21.8855,-11.11403 -44.05254,-22.405611 -68.01758,-28.316406 -6.97229,-1.648044 -14.12231,-2.63607 -21.29688,-2.560547 z M 696.13086,61.148438 c -1.66223,-0.01342 -3.32602,0.04069 -4.98633,0.166015 -20.27025,1.437177 -38.45577,13.884892 -49.86719,30.285156 -12.67169,18.065311 -17.26731,40.666481 -17.05078,62.435551 0.19994,7.81604 0.78567,15.77767 2.67188,23.33398 3.14551,4.12824 5.49863,8.98478 9.91992,11.93945 2.41464,1.99949 4.81192,4.02449 7.20898,6.05079 -9.83827,-30.77137 -8.65642,-55.1894 -1.95898,-73.40626 9.67672,-26.320368 30.84864,-39.705869 46.85547,-40.636714 l 0.22265,5.357422 c 0.19866,-0.03403 0.39418,-0.0786 0.59375,-0.109375 6.07306,-0.587357 12.00461,1.67122 17.2168,4.177735 16.13171,8.519042 26.78664,24.544672 33.56836,41.033202 3.39878,8.40582 5.71956,16.85704 6.98438,25.57617 2.92909,18.00154 -0.76586,36.95244 -9.60743,52.64844 -8.27183,15.12539 -22.58634,27.81834 -39.97851,30.69141 -2.70202,0.46982 -5.44279,0.69604 -8.16016,1.0664 0.14816,0.1601 0.30048,0.31691 0.44922,0.47657 37.97841,6.35163 57.94809,-16.31785 65.19922,-51.45704 6.3538,-30.79067 -3.28572,-79.96345 -45.52734,-114.005856 l 39.67187,15.462891 C 739.32075,79.458271 726.41237,68.613096 710.94922,62.974609 c -4.85626,-1.1404 -9.83168,-1.785905 -14.81836,-1.826171 z m 68.11328,54.421872 c 10.70555,43.8515 16.44119,92.27757 -13.41602,123.90039 -13.09047,13.67185 -28.39314,19.94925 -41.11718,24.08985 0.90764,1.19021 1.78714,2.40274 2.62695,3.64843 19.10676,-4.53929 37.24515,-14.92878 48.89649,-31 10.25728,-13.7687 15.46573,-30.79908 16.3125,-47.84179 1.65693,-24.79854 -2.4994,-50.34465 -13.30274,-72.79688 z M 506.84796,594.10187 c -6.48409,4.98629 -13.66436,8.99002 -21.14914,12.26131 9.85451,20.14243 19.93795,40.55615 34.58188,57.72431 5.89262,7.03181 13.13662,12.79605 21.04804,17.40121 -4.19169,-19.00263 -10.38112,-37.52141 -18.18758,-55.33788 -4.74546,-11.1914 -9.77473,-22.26538 -14.21892,-33.58439 -0.69143,0.51183 -1.38286,1.02365 -2.07428,1.53544 z M 593.1875,164.14453 c -0.67177,0.33955 -1.34385,0.67801 -2.01562,1.01758 -27.51013,14.19629 -55.74535,27.43414 -81.05469,45.43555 -11.24825,8.19258 -22.05959,17.54451 -29.3418,29.56445 0.77718,9.68545 1.56616,19.36957 2.34766,29.05469 0.51014,-0.46153 1.03231,-0.90766 1.56054,-1.34766 3.6099,-11.08332 -0.99794,-23.67161 13.57422,-36.03906 26.04338,-20.27136 53.75264,-38.76992 97.38867,-60.91602 -0.81986,-2.25656 -1.63741,-4.51359 -2.45898,-6.76953 z m -27.22461,98.72656 c 1.78844,0.44805 3.58552,0.70936 5.42578,0.24024 z M 729.83398,345.875 C 737.23015,491.98074 616.78746,524.08504 551.9082,527.82227 l -0.87304,4.01367 c 20.01373,2.86238 40.41438,-0.35133 59.73828,-5.71289 38.12133,-10.92174 73.78608,-33.43485 96.47265,-66.40821 16.95837,-24.5467 25.92341,-54.34264 26.29297,-84.10742 0.008,-10.08561 -1.32564,-20.02913 -3.70508,-29.73242 z m -58.81836,-89.60938 c 7.62102,34.30718 12.72803,69.12372 11.02735,104.28711 -0.77004,14.6482 -2.95971,29.90829 -6.94141,43.86329 -5.77247,20.68131 -16.03063,40.16038 -30.08008,56.21679 -10.1844,11.78903 -22.08384,21.7608 -34.76171,30.66797 101.01934,-34.96303 112.48117,-158.95157 60.75585,-235.03516 z" />
    </g>
    <g
       id="g3935"
       inkscape:label="grp_moustache"
       style="stroke:none;stroke-width:0;stroke-miterlimit:4;stroke-dasharray:none">
      <path
         id="path2904"
         style="fill:url(#linearGradient3915);fill-opacity:1;stroke:none;stroke-width:0;stroke-miterlimit:4;stroke-dasharray:none"
         d="m 113.15907,117.39343 h 45.73197 v 2.60135 h -45.73197 z m -0.0132,7.90466 h 38.47527 v 2.62775 h -38.47527 z m -0.01,7.37328 h 33.41724 v 2.64784 h -33.41724 z"
         inkscape:label="m_right" />
      <path
         id="path2902"
         style="fill:url(#linearGradient3927);fill-opacity:1;stroke:none;stroke-width:0;stroke-miterlimit:4;stroke-dasharray:none"
         inkscape:label="m_left"
         d="m 57.120027,117.32514 v 2.73781 h 7.885306 c -0.06486,-0.92067 -0.08567,-1.8342 -0.06821,-2.73781 z m 5.062739,7.89719 v 2.77967 h 4.281392 c -0.267515,-0.92028 -0.502042,-1.84814 -0.704347,-2.77967 z m 3.534669,7.37267 v 2.80035 h 3.637505 c -0.452543,-0.91012 -0.879986,-1.84432 -1.275892,-2.80035 z" />
    </g>
    <g
       id="g3770"
       inkscape:label="grp_nose"
       style="stroke:none;stroke-width:0;stroke-miterlimit:4;stroke-dasharray:none">
      <path
         style="display:inline;fill:url(#radialGradient3721);fill-opacity:1;stroke:none;stroke-width:0;stroke-linecap:butt;stroke-linejoin:miter;stroke-miterlimit:4;stroke-dasharray:none;stroke-opacity:1;paint-order:markers stroke fill"
         d="m 320.41797,419.25195 c 0.3242,0.0795 0.61291,0.15473 0.93555,0.23438 0.63179,0.15589 1.20794,0.30341 1.83203,0.45898 0.58277,0.14705 1.17726,0.29372 1.77343,0.44336 5.75211,1.44377 11.23691,2.84889 15.9336,3.89649 -21.0417,3.5119 -27.93889,7.82794 -35.08985,11.33984 -1.6864,7.81958 4.38545,26.9998 8.70704,31.46875 2.03758,-0.23705 3.93948,-1.00685 5.36132,-2.58203 2.69248,-3.44126 2.62033,-8.17682 0.97852,-12.06055 -1.9471,-6.23078 2.67699,-13.52814 9.29101,-14.07031 8.77784,-0.7838 17.71153,-3.04059 25.12696,-7.94336 3.20636,-1.85613 1.58177,-7.05404 -1.85156,-7.67773 -8.44094,-2.55035 -17.39499,-2.88704 -26.15625,-3.36133 -2.28048,-0.0767 -4.56055,-0.11985 -6.8418,-0.14649 z"
         transform="scale(0.26458333)"
         id="path2892"
         inkscape:label="n3" />
      <path
         style="fill:url(#linearGradient3733);fill-opacity:1;stroke:none;stroke-width:0;stroke-linecap:butt;stroke-linejoin:miter;stroke-miterlimit:4;stroke-dasharray:none;stroke-opacity:1"
         d="m 289.82227,431.96484 c 4.9819,6.42407 8.67259,17.07066 8.18945,24.28321 1.94672,4.02167 4.19788,8.21945 8.70117,9.69336 2.33269,0.88032 5.17713,1.45712 7.79688,1.15234 -4.32159,-4.46895 -10.39344,-23.64917 -8.70704,-31.46875 -5.41666,-1.29468 -15.98046,-3.66016 -15.98046,-3.66016 z"
         transform="scale(0.26458333)"
         id="path3531"
         inkscape:label="n3" />
      <path
         id="path2942"
         style="fill:url(#radialGradient3751);fill-opacity:1;stroke:none;stroke-width:0;stroke-linecap:butt;stroke-linejoin:miter;stroke-miterlimit:4;stroke-dasharray:none;stroke-opacity:1"
         inkscape:label="n2"
         d="m 324.95898,420.38867 c -18.62699,2.77062 -42.83183,2.47203 -52.35351,3.74414 1.08327,4.52992 10.16201,4.83432 13.91211,7.91992 4.80602,3.95445 7.89127,11.55308 8.72851,18.23438 0.57769,1.52696 1.19641,3.03367 2.01563,4.43555 0.24049,0.49844 0.50295,1.015 0.75,1.52539 0.48314,-7.21255 -3.20755,-17.85914 -8.18945,-24.28321 0,0 10.5638,2.36548 15.98046,3.66016 7.15096,-3.5119 14.04815,-7.82794 35.08985,-11.33984 -4.69669,-1.0476 -10.18149,-2.45272 -15.9336,-3.89649 z"
         transform="scale(0.26458333)" />
      <path
         id="path2944"
         style="fill:url(#linearGradient3760);fill-opacity:1;stroke:none;stroke-width:0;stroke-linecap:butt;stroke-linejoin:miter;stroke-miterlimit:4;stroke-dasharray:none;stroke-opacity:1"
         d="m 84.517837,110.92294 c -0.690075,-0.006 -1.380532,-0.005 -2.070674,0.001 -4.053228,0.041 -8.106592,0.20523 -12.159982,0.0858 0.01926,1.14967 0.738097,2.11835 1.662948,2.73781 1.45152,1.20141 3.526848,1.33615 4.846733,2.71353 0.07593,0.0851 0.145187,0.17391 0.211873,0.26407 0.01908,0.0258 0.03742,0.0519 0.05581,0.078 0.04867,0.0693 0.09528,0.13966 0.139526,0.21136 0.01683,0.0272 0.03439,0.0541 0.05064,0.0816 0.05094,0.0865 0.09936,0.17421 0.145211,0.26355 0.07528,0.1462 0.143206,0.29611 0.208256,0.44803 0.06522,0.15293 0.125841,0.30817 0.184999,0.46457 0.0074,0.0197 0.01587,0.0387 0.02326,0.0584 0.101,0.26859 0.199051,0.53891 0.300755,0.8077 -0.22152,-1.76776 -1.037826,-3.77823 -2.309419,-4.82451 -0.992214,-0.8164 -3.394297,-0.89694 -3.680912,-2.09548 2.519278,-0.33658 8.923475,-0.25758 13.851866,-0.99064 -0.404297,-0.10148 -0.785397,-0.19901 -1.20251,-0.30127 -1.72e-4,-1e-5 -2.65e-4,0 -5.29e-4,0 -0.08595,-0.001 -0.171908,-0.003 -0.257866,-0.004 z"
         inkscape:label="n1" />
    </g>
    <g
       id="g3867"
       inkscape:label="gr_eyes"
       style="stroke:none;stroke-width:0;stroke-miterlimit:4;stroke-dasharray:none">
      <g
         id="g3853"
         inkscape:label="grp_eye_right"
         style="stroke:none;stroke-width:0;stroke-miterlimit:4;stroke-dasharray:none">
        <path
           style="display:inline;fill:url(#radialGradient3812);fill-opacity:1;stroke:none;stroke-width:0;stroke-linecap:butt;stroke-linejoin:miter;stroke-miterlimit:4;stroke-dasharray:none;stroke-opacity:1;paint-order:markers stroke fill"
           d="m 543.94141,268.2207 c -0.75787,0.0468 -1.51557,0.0939 -2.27344,0.14063 -2.54543,0.17847 -5.09431,0.33137 -7.64453,0.47656 -6.85501,11.59807 -25.49057,22.602 -41.11328,22.39844 -1.29901,4.02105 -2.59769,8.04138 -3.89649,12.0625 12.441,2.67778 26.24442,4.56535 38.09766,-1.29297 9.83304,-4.76061 14.94876,-15.57014 16.15039,-25.99024 0.3685,-2.58349 0.48016,-5.19452 0.67969,-7.79492 z"
           id="path3784"
           transform="scale(0.26458333)"
           inkscape:label="or3" />
        <path
           style="fill:url(#radialGradient3828);fill-opacity:1;stroke:none;stroke-width:0;stroke-linecap:butt;stroke-linejoin:miter;stroke-miterlimit:4;stroke-dasharray:none;stroke-opacity:1"
           d="m 534.02344,268.83789 c -7.363,0.4192 -14.73448,0.77583 -22.0625,1.4375 3.97602,2.86611 3.26401,6.79398 0.38476,10.13867 -3.20492,3.72308 -7.08925,6.14213 -10.43164,6.03321 -2.42203,-0.0789 -4.55771,-1.48555 -5.94336,-4.6836 -1.02001,3.15756 -2.04043,6.31487 -3.06054,9.47266 15.62271,0.20356 34.25827,-10.80037 41.11328,-22.39844 z"
           id="path3799"
           transform="scale(0.26458333)"
           inkscape:label="or2" />
        <path
           id="path2983"
           style="fill:url(#radialGradient3840);fill-opacity:1;stroke:none;stroke-width:0;stroke-linecap:butt;stroke-linejoin:miter;stroke-miterlimit:4;stroke-dasharray:none;stroke-opacity:1"
           d="m 135.4553,71.509847 c -0.0878,0.0079 -0.17579,0.01445 -0.26355,0.02273 -1.34947,0.294241 -2.70562,0.935863 -3.6251,1.961119 -0.11376,0.352091 -0.22732,0.704175 -0.34107,1.056266 0.36662,0.846149 0.93168,1.218319 1.57251,1.239203 0.88434,0.02882 1.91207,-0.611222 2.76004,-1.596287 0.76203,-0.885219 0.95023,-1.924656 -0.10283,-2.683039 z"
           inkscape:label="or1" />
      </g>
      <g
         id="g3701"
         inkscape:label="grp_eye_left"
         style="stroke:none;stroke-width:0;stroke-miterlimit:4;stroke-dasharray:none">
        <path
           id="path3630"
           style="display:inline;fill:url(#radialGradient3667);fill-opacity:1;stroke:none;stroke-width:0;stroke-linecap:butt;stroke-linejoin:miter;stroke-miterlimit:4;stroke-dasharray:none;stroke-opacity:1;paint-order:markers stroke fill"
           inkscape:label="ol3"
           d="m 342.07617,274.74023 a 12.964422,9.9232411 80.249716 0 1 -7.07422,9.44336 12.964422,9.9232411 80.249716 0 1 -8.05468,-2.30468 c 1.27281,4.94091 3.35195,9.67779 6.13867,13.91992 1.23186,1.1528 2.54065,4.30911 4.25195,2.20898 6.31995,-4.15107 7.79282,-12.90394 6.11914,-19.83008 -0.29006,-1.20079 -0.76808,-2.3565 -1.38086,-3.4375 z"
           transform="scale(0.26458333)" />
        <path
           id="ellipse3636"
           style="fill:url(#radialGradient3692);fill-opacity:1;fill-rule:nonzero;stroke:none;stroke-width:0;stroke-linecap:butt;stroke-linejoin:miter;stroke-miterlimit:4;stroke-dasharray:none;paint-order:markers stroke fill"
           inkscape:label="ol2"
           d="m 341.95312,274.51367 a 11.160714,9.7767854 0 0 1 -10.9707,7.98633 11.160714,9.7767854 0 0 1 -4.04883,-0.66602 c 0.004,0.015 0.008,0.0299 0.0117,0.0449 a 12.964422,9.9232412 80.249716 0 0 8.05664,2.30468 12.964422,9.9232412 80.249716 0 0 7.07422,-9.44531 c -0.0421,-0.0743 -0.0796,-0.15109 -0.12305,-0.22461 z"
           transform="scale(0.26458333)" />
        <path
           id="path2971"
           style="fill:url(#radialGradient3676);fill-opacity:1;fill-rule:nonzero;stroke:none;stroke-width:0;stroke-miterlimit:4;stroke-dasharray:none;paint-order:markers stroke fill"
           d="m 87.673716,70.961043 c -0.556702,-0.003 -1.071346,0.224935 -1.554427,0.478522 -0.01175,1.051076 0.119555,2.106415 0.381889,3.129008 a 2.9529389,2.5867745 0 0 0 1.071253,0.176218 2.9529389,2.5867745 0 0 0 2.902664,-2.11305 C 89.892911,71.64615 88.850278,70.929097 87.673716,70.961043 Z"
           inkscape:label="ol1" />
      </g>
    </g>
    <g
       id="g3887"
       inkscape:label="grp_ears"
       style="stroke:none;stroke-width:0;stroke-miterlimit:4;stroke-dasharray:none">
      <path
         style="display:inline;mix-blend-mode:normal;fill:url(#radialGradient3879);fill-opacity:1;stroke:none;stroke-width:0;stroke-linecap:butt;stroke-linejoin:miter;stroke-miterlimit:4;stroke-dasharray:none;stroke-opacity:1;paint-order:markers stroke fill"
         d="m 183.08594,26.507812 c -2.30751,0.02595 -4.30496,1.439175 -5.93618,2.943793 -2.85488,2.705465 -3.89698,6.79808 -3.71323,10.62547 0.1665,4.266999 1.44329,8.411281 3.11425,12.31355 2.11309,1.847567 4.54314,3.515835 6.38086,5.544922 0.60182,0.645559 1.0589,1.47413 0.89063,2.384765 2.85949,-0.118089 5.45523,-1.750977 7.19175,-3.962046 2.99002,-3.756406 3.68111,-8.852809 3.07991,-13.498649 -0.70534,-5.00631 -2.6584,-9.844805 -5.62127,-13.939695 -1.16224,-1.480588 -2.96057,-2.470238 -4.86992,-2.409927 -0.17216,8.82e-4 -0.34482,-0.0072 -0.5168,-0.0022 z"
         id="path2900"
         inkscape:label="e_right" />
      <path
         style="display:inline;fill:url(#radialGradient2768);fill-opacity:1;stroke:none;stroke-width:0;stroke-linecap:butt;stroke-linejoin:miter;stroke-miterlimit:4;stroke-dasharray:none;stroke-opacity:1;paint-order:markers stroke fill"
         d="m 101.70898,30.832031 c -1.00047,0.250046 -0.81422,1.517365 -0.84227,2.310545 0.0511,3.276686 -0.0118,6.618648 0.83837,9.808596 0.20929,0.577203 0.30516,1.49845 0.95898,0.714844 1.7411,-1.298821 3.78812,-2.280386 5.9957,-2.327663 0.55294,-0.08994 -0.36348,-0.996924 -0.42737,-1.43099 -1.56344,-3.142789 -2.89788,-6.642944 -5.76364,-8.860488 -0.22576,-0.142523 -0.48642,-0.262802 -0.75977,-0.214844 z"
         id="path2898"
         inkscape:label="e_left" />
    </g>
  </g>
</svg>
